<svg width="20" height="20" viewBox="0 0 20 20" fill="none" xmlns="http://www.w3.org/2000/svg">
<g clip-path="url(#clip0_2394_21416)">
<path fill-rule="evenodd" clip-rule="evenodd" d="M4.55557 16.3009C3.3131 15.184 2.49528 13.6217 1.98696 11.8938C1.67882 10.8457 1.45209 8.70036 1.45209 8.70036C1.44547 8.63765 1.45211 8.57425 1.47159 8.51428C1.49108 8.4543 1.52296 8.3991 1.56518 8.35226C1.60739 8.30542 1.659 8.26799 1.71663 8.2424C1.77426 8.21681 1.83663 8.20363 1.89969 8.20373H17.1944C17.2567 8.20362 17.3183 8.21648 17.3754 8.24147C17.4324 8.26647 17.4836 8.30306 17.5258 8.34892C17.5679 8.39479 17.6 8.44892 17.6201 8.50787C17.6402 8.56682 17.6478 8.62931 17.6425 8.69136C17.6425 8.69136 17.5921 9.28561 17.5075 10.0031H19.4436C19.5629 10.0031 19.6774 10.0505 19.7617 10.1349C19.8461 10.2192 19.8935 10.3336 19.8935 10.453V11.1961C19.8931 12.192 19.4974 13.1469 18.7932 13.8511C18.089 14.5553 17.134 14.951 16.1382 14.9514H16.0437C15.7477 15.4483 15.385 15.9024 14.9659 16.3009H17.6443C17.7636 16.3009 17.878 16.3483 17.9623 16.4327C18.0467 16.5171 18.0941 16.6315 18.0941 16.7508C18.0941 17.0461 18.0359 17.3386 17.9229 17.6115C17.8098 17.8844 17.6442 18.1324 17.4353 18.3412C17.2265 18.5501 16.9785 18.7158 16.7056 18.8288C16.4327 18.9418 16.1402 19 15.8449 19H3.24922C2.65269 19 2.08059 18.763 1.65878 18.3412C1.23697 17.9194 1 17.3473 1 16.7508C1 16.6315 1.04739 16.5171 1.13176 16.4327C1.21612 16.3483 1.33054 16.3009 1.44984 16.3009H4.55557ZM17.1175 17.2006H1.97661C2.06965 17.4638 2.242 17.6916 2.46992 17.8527C2.69783 18.0139 2.9701 18.1004 3.24922 18.1003H15.8449C16.124 18.1004 16.3963 18.0139 16.6242 17.8527C16.8521 17.6916 17.0244 17.4638 17.1175 17.2006ZM13.4755 16.3009C15.108 15.3387 15.8728 13.6554 16.3343 11.6945C16.5003 10.9887 16.6343 9.77684 16.7009 9.10342H2.40396C2.48539 9.77099 2.64823 10.9536 2.85021 11.6401C3.42331 13.5897 4.40892 15.3234 6.0684 16.3009H13.4755ZM17.3901 10.9028C17.3436 11.2377 17.2836 11.5705 17.2101 11.9006C17.0325 12.6545 16.8102 13.3688 16.521 14.0261C17.2058 13.9333 17.8337 13.5955 18.2884 13.0751C18.7431 12.5547 18.9937 11.8871 18.9938 11.1961V10.9028H17.3901ZM8.84844 6.45204C8.84844 6.45204 8.19751 6.08856 8.19751 5.05482C8.19751 4.02108 8.84844 3.6576 8.84844 3.6576C8.90313 3.63234 8.95219 3.59634 8.99271 3.55176C9.03322 3.50717 9.06437 3.45491 9.0843 3.39805C9.10423 3.3412 9.11254 3.28093 9.10874 3.2208C9.10493 3.16068 9.08909 3.10193 9.06215 3.04805C9.0352 2.99416 8.99771 2.94624 8.9519 2.90712C8.90608 2.868 8.85287 2.83848 8.79543 2.82032C8.73799 2.80215 8.67749 2.79571 8.61751 2.80137C8.55753 2.80703 8.4993 2.82468 8.44628 2.85328C8.44628 2.85328 7.29782 3.38904 7.29782 5.05482C7.29782 6.72059 8.44628 7.25636 8.44628 7.25636C8.4993 7.28495 8.55753 7.3026 8.61751 7.30827C8.67749 7.31393 8.73799 7.30749 8.79543 7.28932C8.85287 7.27116 8.90608 7.24164 8.9519 7.20252C8.99771 7.1634 9.0352 7.11547 9.06215 7.06159C9.08909 7.00771 9.10493 6.94896 9.10874 6.88883C9.11254 6.82871 9.10423 6.76843 9.0843 6.71158C9.06437 6.65473 9.03322 6.60246 8.99271 6.55788C8.95219 6.51329 8.90313 6.4773 8.84844 6.45204ZM10.6478 5.45698C10.6478 5.45698 11.7963 4.92121 11.7963 3.25544C11.7963 1.58967 10.6478 1.0539 10.6478 1.0539C10.5948 1.02531 10.5366 1.00765 10.4766 1.00199C10.4166 0.996329 10.3561 1.00277 10.2987 1.02094C10.2412 1.0391 10.188 1.06862 10.1422 1.10774C10.0964 1.14686 10.0589 1.19478 10.0319 1.24867C10.005 1.30255 9.98916 1.3613 9.98536 1.42142C9.98155 1.48155 9.98986 1.54182 10.0098 1.59868C10.0297 1.65553 10.0609 1.7078 10.1014 1.75238C10.1419 1.79697 10.191 1.83296 10.2457 1.85822C10.2457 1.85822 10.8966 2.2217 10.8966 3.25544C10.8966 4.28918 10.2457 4.65266 10.2457 4.65266C10.191 4.67792 10.1419 4.71391 10.1014 4.7585C10.0609 4.80308 10.0297 4.85535 10.0098 4.9122C9.98986 4.96906 9.98155 5.02933 9.98536 5.08946C9.98916 5.14958 10.005 5.20833 10.0319 5.26221C10.0589 5.3161 10.0964 5.36402 10.1422 5.40314C10.188 5.44226 10.2412 5.47178 10.2987 5.48994C10.3561 5.50811 10.4166 5.51455 10.4766 5.50889C10.5366 5.50323 10.5948 5.48557 10.6478 5.45698Z" fill="#CE7C64" stroke="#CE7C64" stroke-width="0.5"/>
</g>
<defs>
<clipPath id="clip0_2394_21416">
<rect width="20" height="20" fill="white"/>
</clipPath>
</defs>
</svg>
