<svg width="20" height="20" viewBox="0 0 20 20" fill="none" xmlns="http://www.w3.org/2000/svg">
<g clip-path="url(#clip0_2394_21432)">
<path d="M19.5008 6.02324C19.5013 5.85557 19.4685 5.68947 19.4044 5.53456C19.3403 5.37965 19.246 5.239 19.1271 5.12078L14.3793 0.373679C14.1399 0.134407 13.8152 0 13.4767 0C13.1382 0 12.8135 0.134407 12.5741 0.373679L8.86968 4.0781L8.78729 3.99571C8.73318 3.94176 8.65988 3.91146 8.58347 3.91146C8.50705 3.91146 8.43376 3.94176 8.37964 3.99571L1.43777 10.9349L0.161441 11.5599C0.120241 11.5801 0.0844524 11.6098 0.057052 11.6466C0.0296517 11.6834 0.0114309 11.7262 0.00390472 11.7715C-0.00362142 11.8167 -0.000235396 11.8631 0.0137812 11.9068C0.0277977 11.9505 0.0520398 11.9902 0.0844917 12.0226L7.47718 19.4155C7.50396 19.4423 7.53576 19.4635 7.57077 19.478C7.60577 19.4925 7.64328 19.5 7.68117 19.5C7.69701 19.5 7.71282 19.4987 7.72846 19.4962C7.77372 19.4886 7.81652 19.4704 7.85332 19.443C7.89011 19.4155 7.91984 19.3797 7.94003 19.3385L8.56518 18.062L12.477 14.1502L12.5051 14.2161C12.5246 14.2621 12.5557 14.3023 12.5954 14.3327C12.6351 14.3631 12.6821 14.3826 12.7316 14.3894C12.7445 14.3912 12.7575 14.3921 12.7705 14.392C12.8139 14.3921 12.8568 14.3823 12.8959 14.3634C12.935 14.3446 12.9694 14.3171 12.9964 14.2831L15.5194 11.107C15.5676 11.0519 15.593 10.9806 15.5906 10.9075C15.5881 10.8343 15.558 10.7649 15.5062 10.7132L15.4227 10.6295L19.1263 6.92587C19.2453 6.80764 19.3397 6.66699 19.4039 6.51206C19.4682 6.35713 19.5012 6.19098 19.5008 6.02324ZM7.59961 18.7223L0.77802 11.9007L1.55064 11.5217L7.97842 17.9497L7.59961 18.7223ZM8.32774 17.484L2.01596 11.1722L8.48394 4.70588L12.2343 13.5764L8.32774 17.484ZM12.847 13.5435L9.42364 5.44752L9.64823 5.67211L9.64955 5.67359L9.65119 5.67491L11.367 7.39036L11.3698 7.39366L11.3731 7.39646L12.1025 8.12591L12.1061 8.13019C12.1075 8.13151 12.1091 8.13233 12.1104 8.13365L14.8038 10.8264C14.8061 10.8288 14.8078 10.8318 14.8102 10.8341C14.8127 10.8364 14.8155 10.8382 14.818 10.8405L14.9168 10.9394L12.847 13.5435ZM10.2612 5.4696L10.8651 4.86472L12.1777 6.17813L11.5739 6.78185L10.2612 5.4696ZM12.7183 7.92587L13.3218 7.32231L14.6356 8.63505L14.0317 9.23911L12.7183 7.92587ZM18.7186 6.51805L15.0149 10.2218L14.4397 9.64676L15.247 8.83937C15.2738 8.8126 15.2951 8.78082 15.3096 8.74583C15.3241 8.71084 15.3316 8.67334 15.3316 8.63546C15.3316 8.59759 15.3241 8.56009 15.3096 8.5251C15.2951 8.49011 15.2738 8.45832 15.247 8.43156L13.5252 6.71133C13.4984 6.68456 13.4666 6.66332 13.4317 6.64883C13.3967 6.63434 13.3592 6.62688 13.3213 6.62688C13.2835 6.62688 13.246 6.63434 13.211 6.64883C13.1761 6.66332 13.1443 6.68456 13.1175 6.71133L12.3101 7.51872L11.9806 7.18917L12.788 6.38179C12.842 6.32772 12.8724 6.2544 12.8724 6.17796C12.8724 6.10152 12.842 6.02821 12.788 5.97414L11.0677 4.25226C11.0127 4.20007 10.9396 4.17097 10.8638 4.17097C10.7879 4.17097 10.7149 4.20007 10.6598 4.25226L9.85238 5.06113L9.27749 4.48591L12.9819 0.781327C13.1132 0.650522 13.2909 0.577074 13.4762 0.577074C13.6615 0.577074 13.8393 0.650522 13.9705 0.781327L18.7178 5.52859C18.8489 5.65989 18.9225 5.83781 18.9225 6.02332C18.9225 6.20883 18.8489 6.38676 18.7178 6.51805H18.7186Z" fill="#CE7C64" stroke="#CE7C64" stroke-width="0.2"/>
<path d="M16.1372 4.09877C16.0831 4.04474 16.0098 4.01438 15.9334 4.01438C15.8569 4.01438 15.7836 4.04474 15.7296 4.09877L14.0088 5.81949C13.982 5.84626 13.9608 5.87804 13.9463 5.91303C13.9318 5.94802 13.9243 5.98552 13.9243 6.0234C13.9243 6.06127 13.9318 6.09878 13.9463 6.13376C13.9608 6.16875 13.982 6.20054 14.0088 6.2273L15.7296 7.94802C15.7563 7.97482 15.7881 7.99607 15.8231 8.01058C15.858 8.02508 15.8955 8.03255 15.9334 8.03255C15.9713 8.03255 16.0087 8.02508 16.0437 8.01058C16.0787 7.99607 16.1105 7.97482 16.1372 7.94802L17.8581 6.22763C17.8849 6.20087 17.9062 6.16908 17.9207 6.13409C17.9352 6.09911 17.9426 6.0616 17.9426 6.02373C17.9426 5.98585 17.9352 5.94835 17.9207 5.91336C17.9062 5.87837 17.8849 5.84659 17.8581 5.81982L16.1372 4.09877ZM15.9334 7.33639L14.6205 6.02331L15.9334 4.71041L17.2463 6.02331L15.9334 7.33639ZM15.4008 3.3624L13.6801 1.64151C13.625 1.58936 13.5521 1.5603 13.4762 1.5603C13.4004 1.5603 13.3274 1.58936 13.2723 1.64151L11.5516 3.3624C11.5248 3.38915 11.5035 3.42092 11.489 3.4559C11.4745 3.49087 11.4671 3.52836 11.4671 3.56622C11.4671 3.60409 11.4745 3.64158 11.489 3.67655C11.5035 3.71152 11.5248 3.7433 11.5516 3.77005L13.272 5.49077C13.2987 5.51757 13.3305 5.53883 13.3655 5.55333C13.4005 5.56784 13.438 5.5753 13.4759 5.5753C13.5138 5.5753 13.5513 5.56784 13.5863 5.55333C13.6212 5.53883 13.653 5.51757 13.6798 5.49077L15.4008 3.77005C15.4549 3.71598 15.4852 3.64266 15.4852 3.56622C15.4852 3.48978 15.4549 3.41647 15.4008 3.3624ZM13.4763 4.87831L12.1632 3.5654L13.4763 2.25331L14.7892 3.56622L13.4763 4.87831ZM5.01341 8.75755L4.1037 9.66726C4.07615 9.69386 4.05418 9.72567 4.03906 9.76085C4.02394 9.79602 4.01598 9.83386 4.01564 9.87215C4.0153 9.91044 4.02258 9.94841 4.03708 9.98385C4.05157 10.0193 4.07297 10.0515 4.10004 10.0786C4.12711 10.1056 4.1593 10.1271 4.19473 10.1416C4.23017 10.1561 4.26814 10.1634 4.30642 10.1631C4.34471 10.1627 4.38255 10.1548 4.41773 10.1397C4.45292 10.1246 4.48474 10.1026 4.51134 10.0751L5.42122 9.1652C5.47373 9.11081 5.50278 9.03796 5.50211 8.96236C5.50144 8.88675 5.4711 8.81444 5.41763 8.76098C5.36415 8.70753 5.29182 8.67722 5.21622 8.67658C5.14061 8.67594 5.06778 8.70502 5.01341 8.75755Z" fill="#CE7C64" stroke="#CE7C64" stroke-width="0.2"/>
</g>
<defs>
<clipPath id="clip0_2394_21432">
<rect width="20" height="20" fill="white"/>
</clipPath>
</defs>
</svg>
