<svg width="20" height="20" viewBox="0 0 20 20" fill="none" xmlns="http://www.w3.org/2000/svg">
<g clip-path="url(#clip0_2410_12010)">
<path d="M16.8921 9.3677C15.6311 9.3677 14.9556 10.2827 14.329 11.6568C13.4941 13.4884 12.6371 14.5389 11.9781 14.5389C11.8568 14.5389 11.4873 14.5389 11.1656 13.8209C11.0649 13.5963 10.8181 13.4715 10.5784 13.524C9.3928 13.7842 8.52323 14.3234 7.99373 15.1265C7.55366 15.7941 7.47081 16.4758 7.46061 16.8227C7.45647 16.9666 7.50897 17.1022 7.60862 17.2049C7.70811 17.3073 7.8419 17.3638 7.98534 17.3638H11.9076C11.9619 17.7909 12.0077 18.219 12.0451 18.6479C10.9299 19.4559 9.67327 19.4827 8.8017 19.3573C7.80088 19.2131 6.79135 18.8272 5.81495 18.4541C5.4269 18.3058 5.02577 18.1525 4.62749 18.0148C3.4353 17.6027 2.49112 17.4246 1.62565 17.4536C2.08889 13.7103 3.18307 9.79492 3.93901 8.42207H5.27768C5.17573 8.95766 5.06053 9.75739 4.94655 10.7251C4.94171 10.7662 4.94564 10.8079 4.95808 10.8474C4.97051 10.8869 4.99117 10.9233 5.01869 10.9542C5.04621 10.9851 5.07997 11.0098 5.11774 11.0268C5.15551 11.0437 5.19644 11.0524 5.23784 11.0524C5.30956 11.0523 5.37876 11.0259 5.43234 10.9782C5.48591 10.9305 5.52014 10.8648 5.52854 10.7936C5.64952 9.76625 5.77069 8.93633 5.87463 8.42211H7.73038C7.83381 8.93785 7.95436 9.76442 8.07553 10.7936C8.08462 10.8708 8.12398 10.9412 8.18495 10.9893C8.24592 11.0375 8.32352 11.0595 8.40069 11.0504C8.43891 11.0459 8.47587 11.034 8.50947 11.0152C8.54306 10.9964 8.57262 10.9712 8.59647 10.941C8.62031 10.9108 8.63797 10.8761 8.64844 10.8391C8.65891 10.8021 8.66199 10.7633 8.65749 10.7251C8.54334 9.75617 8.42877 8.95918 8.32713 8.42207H9.60506C10.0726 9.27934 10.6741 11.1354 11.1645 13.2468C11.1732 13.2842 11.1892 13.3196 11.2116 13.3509C11.2339 13.3822 11.2623 13.4088 11.2949 13.4291C11.3276 13.4495 11.3639 13.4632 11.4018 13.4695C11.4398 13.4758 11.4786 13.4746 11.5161 13.4659C11.5536 13.4572 11.5889 13.4412 11.6202 13.4188C11.6515 13.3965 11.6781 13.3681 11.6985 13.3355C11.7188 13.3029 11.7325 13.2665 11.7388 13.2286C11.7451 13.1906 11.7439 13.1518 11.7352 13.1143C11.2239 10.9123 10.5838 8.96395 10.0844 8.07879C10.1649 7.69883 10.2575 7.28317 10.3473 6.88004C10.5784 5.84293 10.8174 4.77036 10.8815 4.16825C10.9746 3.29364 10.9112 1.11707 10.8896 0.470902C10.8858 0.344403 10.8328 0.224377 10.7418 0.136412C10.6508 0.048447 10.529 -0.000500403 10.4025 3.85786e-06H9.71506C9.44639 3.85786e-06 9.22788 0.218676 9.22788 0.487387V1.19204C9.22788 2.57645 8.12006 3.70649 6.75838 3.7111H6.74983C6.0876 3.7111 5.46549 3.45352 4.99737 2.98555C4.52952 2.51758 4.27182 1.89532 4.27182 1.23305V0.487348C4.27182 0.218715 4.05315 3.85786e-06 3.7844 3.85786e-06H3.09717C2.97063 -0.000479982 2.8489 0.0484765 2.75794 0.13644C2.66697 0.224403 2.61395 0.344416 2.61018 0.470902C2.59768 0.843168 2.61807 3.28336 2.61807 4.16809C2.61807 4.24579 2.59952 3.84175 2.65447 3.8967C2.70941 3.95164 2.78393 3.9825 2.86163 3.9825C2.93933 3.9825 3.01384 3.95164 3.06879 3.8967C3.12373 3.84175 3.20081 4.18384 3.20081 4.10614C3.20081 3.2977 3.17901 1.00633 3.1926 0.585941H3.68592V1.23305C3.68592 2.05168 4.00452 2.82121 4.58315 3.39985C5.16448 3.98118 5.93627 4.2984 6.76057 4.29703C8.44405 4.29137 9.81385 2.8984 9.81385 1.19204V0.585941H10.3072C10.3306 1.31852 10.3839 3.30719 10.2989 4.10614C10.2382 4.67528 10.0031 5.73137 9.77538 6.75262C9.69467 7.11504 9.61182 7.48735 9.53706 7.83614H7.97971C7.97121 7.83583 7.9627 7.83583 7.9542 7.83614H5.63639C5.62705 7.83568 5.61769 7.83568 5.60834 7.83614H3.96206C3.89065 7.5041 3.81174 7.15012 3.73502 6.80512C3.5026 5.7625 3.26229 4.68414 3.20081 4.10614C3.19331 4.03594 3.18647 3.95004 3.18006 3.8434C3.17014 3.68196 3.03159 3.55973 2.86967 3.56887C2.83128 3.57121 2.79372 3.58109 2.75914 3.59795C2.72456 3.61481 2.69365 3.63831 2.66816 3.66712C2.64267 3.69593 2.6231 3.72948 2.61058 3.76585C2.59806 3.80223 2.59283 3.84071 2.59518 3.87911C2.60221 3.99461 2.60967 4.08907 2.61807 4.16809C2.68323 4.77922 2.92706 5.87387 3.16299 6.93254C3.25362 7.33903 3.34698 7.75817 3.42725 8.13692C3.03022 8.85989 2.55518 10.2119 2.11346 11.8813C1.60838 13.7897 1.21366 15.8691 1.00186 17.7365C0.996934 17.78 1.00182 17.8241 1.01616 17.8655C1.0305 17.9068 1.05393 17.9445 1.08473 17.9756C1.11553 18.0067 1.15291 18.0306 1.19413 18.0454C1.23534 18.0602 1.27935 18.0655 1.32291 18.0611C2.20026 17.9712 3.16022 18.1277 4.436 18.5687C4.82541 18.7032 5.22213 18.8548 5.60573 19.0015C6.61206 19.3861 7.65272 19.7838 8.71807 19.9373C9.00952 19.9793 9.29545 20 9.57456 20C10.6927 20 11.7027 19.6657 12.5314 19.0147C12.5695 18.9849 12.5995 18.946 12.6189 18.9017C12.6383 18.8573 12.6464 18.8089 12.6425 18.7607C12.6044 18.294 12.5563 17.8283 12.4981 17.3638H12.6774C12.9379 17.3638 13.1675 17.1985 13.249 16.9523C13.4982 16.1983 14.0299 15.3526 14.7079 14.6323C15.2205 14.0875 15.6929 13.7532 15.98 13.6459C16.026 13.8533 16.0492 14.2549 16.0492 14.8448V16.8364C16.0492 17.1271 16.2857 17.3638 16.5765 17.3638H17.0617C17.3524 17.3638 17.5891 17.1271 17.5891 16.8364V14.8448C17.5891 14.4095 17.7668 14.0393 17.9553 13.6476C18.1717 13.1975 18.3952 12.7321 18.3952 12.122C18.3952 10.5261 17.763 9.3677 16.8921 9.3677ZM17.4272 13.3937C17.2186 13.8275 17.0031 14.276 17.0031 14.8448V16.7778H16.6351V14.8448C16.6351 13.9086 16.5916 13.3553 16.3621 13.1134C16.3348 13.0846 16.3018 13.0616 16.2652 13.0459C16.2287 13.0302 16.1893 13.0221 16.1496 13.0222C15.4712 13.0222 14.548 13.9472 14.2813 14.2307C13.5469 15.0111 12.9678 15.9361 12.6927 16.7685C12.6908 16.7738 12.6845 16.7778 12.6774 16.7778H12.1716C12.1676 16.7777 12.1636 16.7777 12.1596 16.7778H8.04881C8.0853 16.0965 8.42889 14.6172 10.6526 14.1078C10.9678 14.7827 11.4137 15.1248 11.9781 15.1248C12.9164 15.1248 13.8867 14.0398 14.8622 11.8999C15.5174 10.4628 16.0485 9.9536 16.8921 9.9536C17.2766 9.9536 17.8092 10.7071 17.8092 12.122C17.8092 12.5987 17.6237 12.9849 17.4272 13.3937Z" fill="#CE7C64"/>
<path d="M2.61807 4.16809C2.61807 3.28336 2.59768 0.843168 2.61018 0.470902C2.61395 0.344416 2.66697 0.224403 2.75794 0.13644C2.8489 0.0484765 2.97063 -0.000479982 3.09717 3.85786e-06H3.7844C4.05315 3.85786e-06 4.27182 0.218715 4.27182 0.487348V1.23305C4.27182 1.89532 4.52952 2.51758 4.99737 2.98555C5.46549 3.45352 6.0876 3.7111 6.74983 3.7111H6.75838C8.12006 3.70649 9.22788 2.57645 9.22788 1.19204V0.487387C9.22788 0.218676 9.44639 3.85786e-06 9.71506 3.85786e-06H10.4025C10.529 -0.000500403 10.6508 0.048447 10.7418 0.136412C10.8328 0.224378 10.8858 0.344403 10.8896 0.470902C10.9112 1.11707 10.9746 3.29364 10.8815 4.16825C10.8174 4.77036 10.5784 5.84293 10.3473 6.88004C10.2575 7.28317 10.1649 7.69883 10.0844 8.07879C10.5838 8.96395 11.2239 10.9123 11.7352 13.1143C11.7439 13.1518 11.7451 13.1906 11.7388 13.2286C11.7325 13.2665 11.7188 13.3029 11.6985 13.3355C11.6781 13.3681 11.6515 13.3965 11.6202 13.4188C11.5889 13.4412 11.5536 13.4572 11.5161 13.4659C11.4786 13.4746 11.4398 13.4758 11.4018 13.4695C11.3639 13.4632 11.3276 13.4495 11.2949 13.4291C11.2623 13.4088 11.2339 13.3822 11.2116 13.3509C11.1892 13.3196 11.1732 13.2842 11.1645 13.2468C10.6741 11.1354 10.0726 9.27934 9.60506 8.42207H8.32713C8.42877 8.95918 8.54334 9.75617 8.65749 10.7251C8.66199 10.7633 8.65891 10.8021 8.64844 10.8391C8.63797 10.8761 8.62031 10.9108 8.59647 10.941C8.57262 10.9712 8.54306 10.9964 8.50947 11.0152C8.47587 11.034 8.43891 11.0459 8.40069 11.0504C8.32352 11.0595 8.24592 11.0375 8.18495 10.9893C8.12398 10.9412 8.08462 10.8708 8.07553 10.7936C7.95436 9.76442 7.83381 8.93785 7.73038 8.42211H5.87463C5.77069 8.93633 5.64952 9.76625 5.52854 10.7936C5.52014 10.8648 5.48591 10.9305 5.43234 10.9782C5.37876 11.0259 5.30956 11.0523 5.23784 11.0524C5.19644 11.0524 5.15551 11.0437 5.11774 11.0268C5.07997 11.0098 5.04621 10.9851 5.01869 10.9542C4.99117 10.9233 4.97051 10.8869 4.95808 10.8474C4.94564 10.8079 4.94171 10.7662 4.94655 10.7251C5.06053 9.75738 5.17573 8.95766 5.27768 8.42207H3.93901C3.18307 9.79492 2.08889 13.7103 1.62565 17.4536C2.49112 17.4246 3.4353 17.6027 4.62749 18.0148C5.02577 18.1525 5.4269 18.3058 5.81495 18.4541C6.79135 18.8272 7.80088 19.2131 8.8017 19.3573C9.67327 19.4827 10.9299 19.4559 12.0451 18.6479C12.0077 18.219 11.9619 17.7909 11.9076 17.3638H7.98534C7.8419 17.3638 7.70811 17.3073 7.60862 17.2049C7.50897 17.1022 7.45647 16.9666 7.46061 16.8227C7.47081 16.4758 7.55366 15.7941 7.99373 15.1265C8.52323 14.3234 9.3928 13.7842 10.5784 13.524C10.8181 13.4715 11.0649 13.5963 11.1656 13.8209C11.4873 14.5389 11.8568 14.5389 11.9781 14.5389C12.6371 14.5389 13.4941 13.4884 14.329 11.6568C14.9556 10.2827 15.6311 9.3677 16.8921 9.3677C17.763 9.3677 18.3952 10.5261 18.3952 12.122C18.3952 12.7321 18.1717 13.1975 17.9553 13.6476C17.7668 14.0393 17.5891 14.4095 17.5891 14.8448V16.8364C17.5891 17.1271 17.3524 17.3638 17.0617 17.3638H16.5765C16.2857 17.3638 16.0492 17.1271 16.0492 16.8364V14.8448C16.0492 14.2549 16.026 13.8533 15.98 13.6459C15.6929 13.7532 15.2205 14.0875 14.7079 14.6323C14.0299 15.3526 13.4982 16.1983 13.249 16.9523C13.1675 17.1985 12.9379 17.3638 12.6774 17.3638H12.4981C12.5563 17.8283 12.6044 18.294 12.6425 18.7607C12.6464 18.8089 12.6383 18.8573 12.6189 18.9017C12.5995 18.946 12.5695 18.9849 12.5314 19.0147C11.7027 19.6657 10.6927 20 9.57456 20C9.29545 20 9.00952 19.9793 8.71807 19.9373C7.65272 19.7838 6.61206 19.3861 5.60573 19.0015C5.22213 18.8548 4.82541 18.7032 4.436 18.5687C3.16022 18.1277 2.20026 17.9712 1.32291 18.0611C1.27935 18.0655 1.23534 18.0602 1.19413 18.0454C1.15291 18.0306 1.11553 18.0067 1.08473 17.9756C1.05393 17.9445 1.0305 17.9068 1.01616 17.8655C1.00182 17.8241 0.996934 17.78 1.00186 17.7365C1.21366 15.8691 1.60838 13.7897 2.11346 11.8813C2.55518 10.2119 3.03022 8.85988 3.42725 8.13692C3.34698 7.75817 3.25362 7.33903 3.16299 6.93254C2.92706 5.87387 2.68323 4.77922 2.61807 4.16809ZM2.61807 4.16809C2.61807 4.24579 2.59952 3.84175 2.65447 3.8967C2.70941 3.95164 2.78393 3.9825 2.86163 3.9825C2.93933 3.9825 3.01384 3.95164 3.06879 3.8967C3.12373 3.84175 3.20081 4.18384 3.20081 4.10614M2.61807 4.16809C2.60967 4.08907 2.60221 3.99461 2.59518 3.87911C2.59283 3.84071 2.59806 3.80223 2.61058 3.76585C2.6231 3.72948 2.64267 3.69593 2.66816 3.66712C2.69365 3.63831 2.72456 3.61481 2.75914 3.59795C2.79372 3.58109 2.83128 3.57121 2.86967 3.56887C3.03159 3.55973 3.17014 3.68196 3.18006 3.8434C3.18647 3.95004 3.19331 4.03594 3.20081 4.10614M3.20081 4.10614C3.20081 3.2977 3.17901 1.00633 3.1926 0.585941H3.68592V1.23305C3.68592 2.05168 4.00452 2.82121 4.58315 3.39985C5.16448 3.98118 5.93627 4.2984 6.76057 4.29703C8.44405 4.29137 9.81385 2.8984 9.81385 1.19204V0.585941H10.3072C10.3306 1.31852 10.3839 3.30719 10.2989 4.10614C10.2382 4.67528 10.0031 5.73137 9.77538 6.75262C9.69467 7.11504 9.61182 7.48735 9.53706 7.83614H7.97971C7.97121 7.83583 7.9627 7.83583 7.9542 7.83614H5.63639C5.62705 7.83568 5.61769 7.83568 5.60834 7.83614H3.96206C3.89065 7.5041 3.81174 7.15012 3.73502 6.80512C3.5026 5.7625 3.26229 4.68414 3.20081 4.10614ZM17.4272 13.3937C17.2186 13.8275 17.0031 14.276 17.0031 14.8448V16.7778H16.6351V14.8448C16.6351 13.9086 16.5916 13.3553 16.3621 13.1134C16.3348 13.0846 16.3018 13.0616 16.2652 13.0459C16.2287 13.0302 16.1893 13.0221 16.1496 13.0222C15.4712 13.0222 14.548 13.9471 14.2813 14.2307C13.5469 15.0111 12.9678 15.9361 12.6927 16.7685C12.6908 16.7738 12.6845 16.7778 12.6774 16.7778H12.1716C12.1676 16.7777 12.1636 16.7777 12.1596 16.7778H8.04881C8.0853 16.0965 8.42889 14.6172 10.6526 14.1078C10.9678 14.7827 11.4137 15.1248 11.9781 15.1248C12.9164 15.1248 13.8867 14.0398 14.8622 11.8999C15.5174 10.4628 16.0485 9.9536 16.8921 9.9536C17.2766 9.9536 17.8092 10.7071 17.8092 12.122C17.8092 12.5987 17.6237 12.9849 17.4272 13.3937Z" stroke="#CE7C64" stroke-width="0.3"/>
<path d="M18.6287 4.72163C18.6267 4.71659 18.6246 4.71155 18.6225 4.70667L17.7523 2.65878C17.7106 2.56029 17.6408 2.47628 17.5516 2.41725C17.4624 2.35823 17.3577 2.3268 17.2508 2.3269H12.5833C12.4763 2.3268 12.3716 2.35824 12.2824 2.41729C12.1932 2.47635 12.1233 2.5604 12.0816 2.65894L11.9725 2.91577C11.9574 2.95117 11.9495 2.9892 11.9491 3.02767C11.9488 3.06615 11.956 3.10431 11.9704 3.13999C11.9848 3.17567 12.0061 3.20816 12.0331 3.23561C12.06 3.26306 12.0921 3.28492 12.1275 3.29995C12.1629 3.31502 12.201 3.32297 12.2394 3.32333C12.2779 3.3237 12.3161 3.31648 12.3518 3.30208C12.3875 3.28769 12.42 3.2664 12.4474 3.23944C12.4749 3.21248 12.4967 3.18037 12.5118 3.14495L12.6103 2.91284H13.7294L13.4954 4.5344H11.9215L12.0384 4.25901C12.0534 4.22361 12.0614 4.18558 12.0617 4.14711C12.062 4.10864 12.0548 4.07048 12.0404 4.03481C12.026 3.99914 12.0047 3.96665 11.9778 3.93921C11.9508 3.91176 11.9187 3.88989 11.8833 3.87485C11.8479 3.85981 11.8099 3.85189 11.7714 3.85155C11.7329 3.8512 11.6948 3.85844 11.6591 3.87284C11.6234 3.88724 11.5909 3.90853 11.5635 3.93549C11.536 3.96244 11.5142 3.99454 11.4991 4.02995L11.2116 4.70667C11.2094 4.71155 11.2074 4.71659 11.2054 4.72163C11.1282 4.91284 11.1663 5.13425 11.3037 5.28851L14.51 8.88757C14.5608 8.94455 14.623 8.99023 14.6925 9.02167C14.7621 9.0531 14.8374 9.06959 14.9138 9.07007H14.9202C14.9965 9.06959 15.0719 9.0531 15.1414 9.02167C15.2109 8.99023 15.2731 8.94455 15.3239 8.88757L18.5302 5.28851C18.6677 5.13421 18.7059 4.91269 18.6287 4.72163ZM13.4836 5.17847L14.2517 7.71675L11.9386 5.12034H13.4688C13.4731 5.1405 13.4779 5.15987 13.4836 5.17847ZM15.7023 6.30901C15.5473 6.2623 15.3839 6.34976 15.3371 6.50464L14.917 7.89253L14.0782 5.12034H15.7559L15.6868 5.34878C15.6643 5.42315 15.6723 5.5034 15.709 5.57189C15.7457 5.64038 15.8081 5.6915 15.8824 5.71401C16.0373 5.76073 16.2009 5.67327 16.2477 5.51839L16.3505 5.17843C16.3562 5.15999 16.3611 5.14046 16.3654 5.1203H17.8955L15.5824 7.71675L15.898 6.67425C15.9447 6.51937 15.8571 6.35585 15.7023 6.30901ZM17.9126 4.5344H16.3387L16.1047 2.91284H17.2236L17.9126 4.5344ZM14.3214 2.91284H15.5127L15.7466 4.5344H14.0874L14.3214 2.91284Z" fill="#CE7C64"/>
</g>
<defs>
<clipPath id="clip0_2410_12010">
<rect width="20" height="20" fill="white"/>
</clipPath>
</defs>
</svg>
