<svg width="20" height="20" viewBox="0 0 20 20" fill="none" xmlns="http://www.w3.org/2000/svg">
<g clip-path="url(#clip0_2407_11985)">
<path d="M13.6375 12.5425C13.6075 12.4594 13.5458 12.3915 13.4658 12.3539C13.3858 12.3163 13.2942 12.3121 13.2111 12.342C13.1688 12.3572 13.1301 12.3808 13.0972 12.4114C13.0643 12.442 13.038 12.4789 13.0197 12.5199C13.0014 12.5609 12.9916 12.6051 12.9909 12.65C12.9902 12.6949 12.9985 12.7395 13.0154 12.7811C13.3193 13.5741 13.3413 14.1805 13.0754 14.4471C12.7529 14.769 11.9495 14.6683 10.9259 14.1785C9.55553 13.467 8.30989 12.5374 7.23769 11.4263C4.6277 8.81596 3.55079 6.25463 4.21686 5.58855C4.32185 5.50565 4.44382 5.4469 4.57409 5.41649C4.70436 5.38608 4.83973 5.38476 4.97057 5.41262C5.05733 5.419 5.14315 5.39119 5.20969 5.33514C5.27622 5.27909 5.31819 5.19923 5.32663 5.11265C5.33507 5.02606 5.30931 4.9396 5.25486 4.87175C5.20041 4.80391 5.12157 4.76005 5.03521 4.74955C4.80655 4.70909 4.57169 4.72105 4.34832 4.78454C4.12495 4.84803 3.91891 4.96139 3.74571 5.11607C2.52486 6.3366 4.39113 9.52035 6.76654 11.8961C7.89197 13.0607 9.19973 14.0341 10.6384 14.778C10.8989 14.9027 11.1674 15.0101 11.442 15.0995L9.07464 15.9972C5.91337 14.7953 3.63763 11.9927 3.1103 8.65203C3.0959 8.56535 3.04785 8.48787 2.97661 8.43644C2.90537 8.38501 2.81671 8.3638 2.72991 8.37742C2.64311 8.39103 2.56519 8.43838 2.51313 8.50915C2.46106 8.57993 2.43905 8.6684 2.45188 8.75532C2.5042 9.08852 2.57417 9.42173 2.6598 9.7476C3.03879 11.1836 3.72935 12.5184 4.68242 13.6574C5.6355 14.7964 6.82769 15.7115 8.17432 16.3377L4.27784 17.8121C4.25998 17.7823 4.23748 17.7556 4.2112 17.7328C3.72117 17.3394 3.31611 16.8506 3.02058 16.296C2.72504 15.7414 2.54517 15.1326 2.49187 14.5064L2.33726 12.6341C2.33437 12.591 2.323 12.5489 2.30382 12.5101C2.28464 12.4714 2.25801 12.4368 2.22546 12.4083C2.19291 12.3799 2.15508 12.3581 2.11412 12.3443C2.07315 12.3304 2.02987 12.3248 1.98673 12.3277C1.98328 12.328 1.97982 12.3282 1.9764 12.3286C1.93259 12.3321 1.8899 12.3442 1.85079 12.3642C1.81168 12.3843 1.77693 12.4119 1.74853 12.4454C1.72013 12.479 1.69864 12.5178 1.68531 12.5597C1.67198 12.6016 1.66707 12.6457 1.67086 12.6895L1.82813 14.5611C1.94525 15.9136 2.57616 17.1698 3.59111 18.0714L0.811524 19.1236L1.31133 17.0724C1.3217 17.0299 1.3236 16.9857 1.31691 16.9425C1.31021 16.8992 1.29506 16.8577 1.27232 16.8203C1.24958 16.7829 1.21969 16.7503 1.18436 16.7244C1.14903 16.6986 1.10896 16.6799 1.06642 16.6696C1.02389 16.6592 0.979734 16.6573 0.936469 16.664C0.893205 16.6707 0.851683 16.6858 0.814274 16.7086C0.776866 16.7313 0.744304 16.7612 0.718448 16.7965C0.692591 16.8319 0.673948 16.8719 0.663582 16.9145L0.0135015 19.5801C-0.000970724 19.6391 0.000958832 19.7009 0.0190815 19.7589C0.0372041 19.8169 0.0708303 19.8688 0.116324 19.909C0.161817 19.9493 0.217447 19.9763 0.277197 19.9872C0.336948 19.9981 0.398545 19.9925 0.455329 19.971L12.7839 15.3061C12.8035 15.2965 12.822 15.2849 12.8392 15.2714C13.106 15.2305 13.3533 15.1071 13.5466 14.9186C13.8767 14.5884 14.1609 13.9076 13.6375 12.5425Z" fill="#CE7C64" stroke="#CE7C64" stroke-width="0.3"/>
<path d="M16.7827 11.6831C14.9814 11.0088 13.0346 10.8198 11.1372 11.135L9.9467 11.3349C9.86128 11.3514 9.78567 11.4005 9.73601 11.4719C9.68635 11.5434 9.66659 11.6314 9.68095 11.7172C9.69531 11.8029 9.74264 11.8797 9.81284 11.9311C9.88304 11.9824 9.97055 12.0043 10.0567 11.992L11.2469 11.7938C13.0288 11.4975 14.8572 11.6752 16.5488 12.3089C16.5863 12.3222 16.6259 12.3288 16.6657 12.3286C16.7439 12.3287 16.8196 12.3013 16.8797 12.2513C16.9397 12.2012 16.9802 12.1317 16.9942 12.0548C17.0081 11.9779 16.9946 11.8985 16.9559 11.8306C16.9172 11.7626 16.8559 11.7104 16.7827 11.6831ZM17.9672 6.52082C17.9484 6.4813 17.922 6.44588 17.8895 6.41657C17.857 6.38726 17.8191 6.36464 17.7778 6.35001C17.7366 6.33537 17.6928 6.32901 17.6491 6.33127C17.6054 6.33354 17.5626 6.34439 17.5231 6.36322L10.5258 9.69525C10.4863 9.71406 10.4509 9.74047 10.4216 9.77297C10.3922 9.80548 10.3696 9.84344 10.355 9.88468C10.3404 9.92593 10.334 9.96965 10.3363 10.0134C10.3385 10.0571 10.3494 10.0999 10.3682 10.1394C10.387 10.1789 10.4134 10.2143 10.4459 10.2436C10.4784 10.273 10.5164 10.2956 10.5576 10.3102C10.5988 10.3248 10.6425 10.3312 10.6862 10.329C10.7299 10.3267 10.7728 10.3159 10.8123 10.2971L10.8124 10.297L17.8096 6.96498C17.8492 6.94617 17.8846 6.91976 17.9139 6.88726C17.9432 6.85475 17.9658 6.81679 17.9804 6.77555C17.9951 6.7343 18.0014 6.69058 17.9992 6.64687C17.9969 6.60316 17.9861 6.56033 17.9672 6.52082ZM8.09708 2.26148C8.08827 2.2181 8.0709 2.17691 8.04598 2.14031C8.02107 2.10372 7.98911 2.07245 7.95198 2.04835C7.91485 2.02425 7.87328 2.00778 7.82972 1.99992C7.78615 1.99206 7.74145 1.99296 7.69824 2.00257C7.65502 2.01218 7.61416 2.0303 7.57802 2.05588C7.54189 2.08146 7.51122 2.11399 7.4878 2.15155C7.46438 2.18912 7.44868 2.23098 7.44162 2.27468C7.43456 2.31839 7.43627 2.36306 7.44667 2.40609C7.86844 4.29033 7.69461 6.25905 6.9492 8.04023L6.46472 9.20278C6.43109 9.28415 6.43103 9.37552 6.46456 9.45693C6.49808 9.53835 6.56247 9.60318 6.64365 9.63727C6.72518 9.6712 6.81684 9.67137 6.8985 9.63776C6.98015 9.60415 7.04513 9.5395 7.07915 9.45801L7.56396 8.2968C8.36261 6.38883 8.5489 4.2799 8.09708 2.26148ZM18.3318 11.9954C17.7797 11.9954 17.3322 12.4429 17.3322 12.995C17.3322 13.547 17.7797 13.9946 18.3318 13.9946C18.8838 13.9946 19.3314 13.547 19.3314 12.995C19.3314 12.4429 18.8838 11.9954 18.3318 11.9954ZM18.3318 13.3282C18.2434 13.3282 18.1586 13.2931 18.0962 13.2306C18.0337 13.1681 17.9986 13.0833 17.9986 12.995C17.9986 12.9066 18.0337 12.8218 18.0962 12.7594C18.1586 12.6969 18.2434 12.6618 18.3318 12.6618C18.4201 12.6618 18.5049 12.6969 18.5674 12.7594C18.6299 12.8218 18.665 12.9066 18.665 12.995C18.665 13.0833 18.6299 13.1681 18.5674 13.2306C18.5049 13.2931 18.4201 13.3282 18.3318 13.3282ZM10.3349 2.66566C9.7828 2.66566 9.33527 3.11319 9.33527 3.66527C9.33527 4.21734 9.7828 4.66488 10.3349 4.66488C10.887 4.66488 11.3345 4.21734 11.3345 3.66527C11.3345 3.11319 10.887 2.66566 10.3349 2.66566ZM10.3349 3.99847C10.2465 3.99847 10.1618 3.96337 10.0993 3.90088C10.0368 3.83839 10.0017 3.75364 10.0017 3.66527C10.0017 3.5769 10.0368 3.49214 10.0993 3.42966C10.1618 3.36717 10.2465 3.33206 10.3349 3.33206C10.4233 3.33206 10.508 3.36717 10.5705 3.42966C10.633 3.49214 10.6681 3.5769 10.6681 3.66527C10.6681 3.75364 10.633 3.83839 10.5705 3.90088C10.508 3.96337 10.4233 3.99847 10.3349 3.99847Z" fill="#CE7C64" stroke="#CE7C64" stroke-width="0.3"/>
<path d="M7.33438 1.33281C7.70242 1.33281 8.00078 1.03445 8.00078 0.666407C8.00078 0.298361 7.70242 0 7.33438 0C6.96633 0 6.66797 0.298361 6.66797 0.666407C6.66797 1.03445 6.96633 1.33281 7.33438 1.33281Z" fill="#CE7C64" stroke="#CE7C64" stroke-width="0.3"/>
<path d="M16.6645 1.66602C16.5761 1.66602 16.4913 1.70112 16.4289 1.76361C16.3664 1.8261 16.3313 1.91085 16.3313 1.99922V2.33242C16.3313 2.4208 16.3664 2.50555 16.4289 2.56804C16.4913 2.63052 16.5761 2.66563 16.6645 2.66563C16.7528 2.66563 16.8376 2.63052 16.9001 2.56804C16.9626 2.50555 16.9977 2.4208 16.9977 2.33242V1.99922C16.9977 1.91085 16.9626 1.8261 16.9001 1.76361C16.8376 1.70112 16.7528 1.66602 16.6645 1.66602ZM16.6645 0C16.5761 0 16.4913 0.0351053 16.4289 0.0975931C16.3664 0.160081 16.3313 0.244832 16.3313 0.333204V0.666407C16.3313 0.754778 16.3664 0.83953 16.4289 0.902018C16.4913 0.964505 16.5761 0.999611 16.6645 0.999611C16.7528 0.999611 16.8376 0.964505 16.9001 0.902018C16.9626 0.83953 16.9977 0.754778 16.9977 0.666407V0.333204C16.9977 0.244832 16.9626 0.160081 16.9001 0.0975931C16.8376 0.0351053 16.7528 0 16.6645 0ZM17.6641 0.999611H17.3309C17.2425 0.999611 17.1577 1.03472 17.0953 1.0972C17.0328 1.15969 16.9977 1.24444 16.9977 1.33281C16.9977 1.42119 17.0328 1.50594 17.0953 1.56842C17.1577 1.63091 17.2425 1.66602 17.3309 1.66602H17.6641C17.7524 1.66602 17.8372 1.63091 17.8997 1.56842C17.9622 1.50594 17.9973 1.42119 17.9973 1.33281C17.9973 1.24444 17.9622 1.15969 17.8997 1.0972C17.8372 1.03472 17.7524 0.999611 17.6641 0.999611ZM15.9981 0.999611H15.6649C15.5765 0.999611 15.4917 1.03472 15.4292 1.0972C15.3668 1.15969 15.3316 1.24444 15.3316 1.33281C15.3316 1.42119 15.3668 1.50594 15.4292 1.56842C15.4917 1.63091 15.5765 1.66602 15.6649 1.66602H15.9981C16.0864 1.66602 16.1712 1.63091 16.2337 1.56842C16.2962 1.50594 16.3313 1.42119 16.3313 1.33281C16.3313 1.24444 16.2962 1.15969 16.2337 1.0972C16.1712 1.03472 16.0864 0.999611 15.9981 0.999611ZM14.332 3.65824H12.659C12.5707 3.65824 12.4859 3.69335 12.4234 3.75583C12.3609 3.81832 12.3258 3.90307 12.3258 3.99145V5.66446C12.3258 5.75283 12.3609 5.83758 12.4234 5.90007C12.4859 5.96256 12.5707 5.99766 12.659 5.99766H14.332C14.4204 5.99766 14.5052 5.96256 14.5676 5.90007C14.6301 5.83758 14.6652 5.75283 14.6652 5.66446V3.99145C14.6652 3.90307 14.6301 3.81832 14.5676 3.75583C14.5052 3.69335 14.4204 3.65824 14.332 3.65824ZM13.9988 5.33126H12.9922V4.32465H13.9988V5.33126ZM11.9047 6.44066C11.8458 6.37783 11.7649 6.34022 11.679 6.33572C11.593 6.33121 11.5086 6.36016 11.4435 6.4165L8.11146 9.41533C8.04582 9.47446 8.00634 9.55724 8.00172 9.64547C7.9971 9.7337 8.0277 9.82015 8.0868 9.88582C8.14593 9.95146 8.22871 9.99093 8.31694 9.99556C8.40517 10.0002 8.49162 9.96958 8.55729 9.91047L11.8893 6.91164C11.9213 6.88173 11.947 6.84581 11.965 6.80595C11.9831 6.76609 11.9931 6.72307 11.9946 6.67933C11.996 6.6356 11.9888 6.59201 11.9734 6.55106C11.9579 6.51011 11.9346 6.47259 11.9047 6.44066ZM17.9973 7.66368C17.9089 7.66368 17.8242 7.69879 17.7617 7.76127C17.6992 7.82376 17.6641 7.90851 17.6641 7.99688V8.33009C17.6641 8.41846 17.6992 8.50321 17.7617 8.5657C17.8242 8.62819 17.9089 8.66329 17.9973 8.66329C18.0856 8.66329 18.1704 8.62819 18.2329 8.5657C18.2954 8.50321 18.3305 8.41846 18.3305 8.33009V7.99688C18.3305 7.90851 18.2954 7.82376 18.2329 7.76127C18.1704 7.69879 18.0856 7.66368 17.9973 7.66368ZM19.4111 7.60637L19.1755 7.3708C19.1126 7.3101 19.0285 7.27651 18.9411 7.27727C18.8537 7.27803 18.7702 7.31308 18.7084 7.37485C18.6466 7.43663 18.6116 7.5202 18.6108 7.60757C18.6101 7.69493 18.6436 7.7791 18.7043 7.84194L18.9399 8.07752C19.0035 8.13892 19.0888 8.17255 19.1772 8.17102C19.2655 8.16949 19.3497 8.13292 19.4111 8.06936C19.4711 8.00723 19.5046 7.92424 19.5046 7.83786C19.5046 7.75149 19.4711 7.66849 19.4111 7.60637ZM19.6633 6.33087H19.3301C19.2417 6.33087 19.157 6.36597 19.0945 6.42846C19.032 6.49095 18.9969 6.5757 18.9969 6.66407C18.9969 6.75244 19.032 6.83719 19.0945 6.89968C19.157 6.96217 19.2417 6.99727 19.3301 6.99727H19.6633C19.7517 6.99727 19.8364 6.96217 19.8989 6.89968C19.9614 6.83719 19.9965 6.75244 19.9965 6.66407C19.9965 6.5757 19.9614 6.49095 19.8989 6.42846C19.8364 6.36597 19.7517 6.33087 19.6633 6.33087ZM19.4029 5.25062C19.3408 5.19062 19.2578 5.15709 19.1714 5.15709C19.085 5.15709 19.002 5.19062 18.9399 5.25062L18.7043 5.4862C18.6577 5.53279 18.626 5.59216 18.6132 5.65679C18.6003 5.72141 18.6069 5.7884 18.6321 5.84927C18.6573 5.91015 18.7 5.96218 18.7548 5.9988C18.8096 6.03541 18.874 6.05496 18.9399 6.05497C19.0283 6.05496 19.113 6.01984 19.1755 5.95735L19.4111 5.72177C19.4725 5.65821 19.5061 5.57286 19.5046 5.48451C19.503 5.39615 19.4665 5.31202 19.4029 5.25062ZM17.9973 4.66485C17.9089 4.66485 17.8242 4.69995 17.7617 4.76244C17.6992 4.82493 17.6641 4.90968 17.6641 4.99805V5.33126C17.6641 5.41963 17.6992 5.50438 17.7617 5.56687C17.8242 5.62935 17.9089 5.66446 17.9973 5.66446C18.0856 5.66446 18.1704 5.62935 18.2329 5.56687C18.2954 5.50438 18.3305 5.41963 18.3305 5.33126V4.99805C18.3305 4.90968 18.2954 4.82493 18.2329 4.76244C18.1704 4.69995 18.0856 4.66485 17.9973 4.66485ZM17.2902 5.4862L17.0546 5.25062C16.9918 5.18993 16.9076 5.15634 16.8203 5.1571C16.7329 5.15786 16.6493 5.1929 16.5876 5.25468C16.5258 5.31646 16.4907 5.40003 16.49 5.4874C16.4892 5.57476 16.5228 5.65893 16.5835 5.72177L16.8191 5.95735C16.8826 6.01874 16.968 6.05237 17.0563 6.05084C17.1447 6.04931 17.2288 6.01274 17.2902 5.94918C17.3502 5.88706 17.3838 5.80406 17.3838 5.71769C17.3838 5.63132 17.3502 5.54832 17.2902 5.4862ZM3.9864 1.44077C3.96716 1.38169 3.93179 1.32916 3.88427 1.28913C3.83676 1.24909 3.77899 1.22313 3.71751 1.21419L2.73955 1.07192L2.30339 0.185928C2.27275 0.133901 2.22906 0.0907727 2.17664 0.0608094C2.12422 0.030846 2.06489 0.015085 2.00451 0.015085C1.94413 0.015085 1.88479 0.030846 1.83237 0.0608094C1.77995 0.0907727 1.73626 0.133901 1.70562 0.185928L1.26746 1.07192L0.289508 1.21419C0.227979 1.22307 0.170161 1.24899 0.122592 1.28902C0.0750222 1.32904 0.0395982 1.38157 0.0203245 1.44068C0.00105075 1.49978 -0.00130393 1.5631 0.0135266 1.62347C0.0283572 1.68384 0.0597815 1.73886 0.104247 1.78231L0.811638 2.47204L0.645036 3.44599C0.634192 3.50741 0.640805 3.57065 0.664124 3.6285C0.687443 3.68635 0.726531 3.73649 0.776941 3.77322C0.827351 3.80995 0.887059 3.8318 0.949271 3.83627C1.01148 3.84074 1.0737 3.82766 1.12885 3.79852L2.00351 3.33737L2.87817 3.79719C2.93319 3.82612 2.99522 3.83908 3.05723 3.8346C3.11923 3.83012 3.17875 3.80839 3.22905 3.77185C3.27935 3.73531 3.31843 3.68543 3.34186 3.62784C3.36529 3.57026 3.37214 3.50727 3.36164 3.44599L3.19504 2.47204L3.90277 1.78231C3.94717 1.73884 3.97854 1.68383 3.99332 1.62347C4.0081 1.56312 4.0057 1.49984 3.9864 1.44077ZM2.60327 2.11718C2.56462 2.15483 2.53569 2.20131 2.51898 2.25262C2.50226 2.30393 2.49826 2.35853 2.50731 2.41173L2.58995 2.89321L2.15845 2.66563C2.11066 2.64053 2.05749 2.62742 2.00351 2.62742C1.94953 2.62742 1.89636 2.64053 1.84857 2.66563L1.4154 2.89287L1.49804 2.41139C1.50725 2.35838 1.50348 2.30393 1.48706 2.25269C1.47064 2.20145 1.44205 2.15496 1.40374 2.11718L1.05354 1.77631L1.53702 1.706C1.59049 1.69825 1.64127 1.6776 1.68498 1.64585C1.72869 1.6141 1.76402 1.57219 1.78792 1.52374L2.00351 1.08624L2.21942 1.52374C2.2433 1.57214 2.27859 1.61402 2.32223 1.64577C2.36588 1.67752 2.41659 1.69819 2.46999 1.706L2.95314 1.77631L2.60327 2.11718ZM18.8709 16.7018H18.8696L18.7323 16.4959C18.3515 15.9264 17.8582 15.4407 17.2829 15.0686C16.7076 14.6966 16.0623 14.4461 15.3866 14.3324C15.3005 14.3201 15.213 14.342 15.1428 14.3934C15.0726 14.4447 15.0253 14.5215 15.0109 14.6073C14.9966 14.6931 15.0163 14.7811 15.066 14.8525C15.1156 14.9239 15.1912 14.9731 15.2767 14.9895C16.2616 15.1567 17.1592 15.6571 17.8193 16.4069C17.545 16.4563 17.2843 16.5634 17.0545 16.7212C16.8247 16.879 16.6311 17.0839 16.4865 17.3223C16.1277 17.965 16.3578 18.7769 17.0005 19.1357C17.6432 19.4946 18.4551 19.2645 18.814 18.6217C18.951 18.3571 19.025 18.0644 19.0302 17.7664C19.2039 18.0187 19.303 18.315 19.3159 18.6211C19.3288 18.9272 19.2551 19.2307 19.1032 19.4967C19.0805 19.535 19.0657 19.5774 19.0596 19.6215C19.0536 19.6656 19.0565 19.7105 19.068 19.7534C19.0796 19.7964 19.0997 19.8366 19.1271 19.8717C19.1544 19.9068 19.1886 19.936 19.2274 19.9577C19.2663 19.9794 19.3091 19.9931 19.3533 19.9979C19.3976 20.0028 19.4423 19.9987 19.485 19.986C19.5276 19.9733 19.5673 19.9522 19.6016 19.9239C19.636 19.8956 19.6643 19.8607 19.685 19.8213C20.295 18.7315 19.9357 17.3545 18.8709 16.7018ZM18.2329 18.2965C18.055 18.6188 17.6496 18.7358 17.3274 18.558C17.0052 18.3801 16.8881 17.9747 17.066 17.6525L17.069 17.6471C17.1661 17.4882 17.2975 17.3529 17.4536 17.2513C17.6097 17.1497 17.7866 17.0844 17.9713 17.06C18.0292 17.0584 18.0866 17.0718 18.1379 17.0987C18.4191 17.2556 18.4341 17.936 18.2329 18.2965Z" fill="#CE7C64" stroke="#CE7C64" stroke-width="0.3"/>
</g>
<defs>
<clipPath id="clip0_2407_11985">
<rect width="20" height="20" fill="white"/>
</clipPath>
</defs>
</svg>
