<svg width="20" height="20" viewBox="0 0 20 20" fill="none" xmlns="http://www.w3.org/2000/svg">
<path d="M1.79424 6.32345C2.08836 7.05874 2.76483 8.23521 4.05895 8.29404C3.52954 8.99992 3.61777 9.85286 3.9413 10.6764C3.58836 10.8823 3.41189 11.2352 3.41189 11.6176C3.41189 12.2058 3.88248 12.6764 4.4413 12.7058C4.55895 12.7646 5.11777 13.0293 5.32366 13.5293C5.47071 13.8823 5.4413 14.294 5.20601 14.7646C4.9413 15.3529 4.85307 15.9411 4.97071 16.4705C5.11777 17.2352 5.58836 17.794 6.26483 18.0882L5.61777 19.2646C5.52954 19.4705 5.6766 19.7058 5.88248 19.7058H14.0001C14.2354 19.7058 14.3531 19.4705 14.2648 19.2646L13.6472 18.0882C14.3237 17.794 14.7942 17.2352 14.9413 16.4705C15.0589 15.9411 14.9707 15.3529 14.706 14.7646C14.5001 14.294 14.4413 13.8823 14.5884 13.5293C14.8237 12.9705 15.4119 12.7058 15.5001 12.6764C16.0884 12.6176 16.4707 12.1176 16.4707 11.5882C16.4707 10.9705 15.9707 10.4705 15.3531 10.4705H13.5884C13.8237 10.294 14.0295 10.0882 14.1766 9.85286C14.3531 9.58815 14.4413 9.29404 14.4707 8.97051C14.9707 9.41168 15.5295 9.52933 16.0001 9.52933C16.6766 9.52933 17.2942 9.26463 17.706 9.05874C18.1472 8.82345 18.3825 8.32345 18.2354 7.85286C17.7648 6.08816 16.6178 5.73521 15.7354 5.73521C15.706 5.73521 15.6766 5.73521 15.6472 5.73521C15.8531 5.47051 16.0295 5.17639 16.0884 4.85286C16.3531 3.82345 15.7648 2.9411 15.5884 2.67639C15.3825 2.41168 15.0589 2.26463 14.706 2.32345C13.7354 2.4411 13.0884 2.82345 12.706 3.4411C12.4707 3.85286 12.3825 4.32345 12.4119 4.79404C12.0295 4.4411 11.5295 4.14698 10.8825 4.14698C11.0884 3.88227 11.2354 3.58815 11.3237 3.26463C11.6178 2.2058 11.1766 1.2058 10.8825 0.67639C10.6766 0.323449 10.2354 0.17639 9.88248 0.294037C9.00013 0.588154 8.38248 1.08815 8.08836 1.79404C7.91189 2.2058 7.88248 2.61757 7.88248 3.02933C7.55895 2.82345 7.1766 2.67639 6.73542 2.67639C6.14718 2.67639 5.52954 2.91168 4.88248 3.35286C4.55895 3.64698 4.41189 4.11757 4.73542 4.7058C4.47071 4.61757 4.20601 4.55874 3.88248 4.55874C3.29424 4.55874 2.70601 4.76463 2.08836 5.2058C1.76483 5.4411 1.61777 5.91168 1.79424 6.32345ZM9.35307 11.4705C8.79424 10.7058 8.76483 9.99992 9.32366 9.29404C9.52954 8.99992 10.206 8.32345 10.559 8.38227C10.8237 8.41168 10.9413 8.64698 11.0589 8.88227C11.2942 9.41168 11.3825 9.88227 11.2648 10.294C11.0884 10.9999 10.4707 11.4117 9.97071 11.647C9.70601 11.7058 9.47071 11.647 9.35307 11.4705ZM7.00013 8.79404C7.52954 9.26463 8.05895 9.41168 8.52954 9.4411C8.38248 9.79404 8.29424 10.147 8.32366 10.4999H6.9413C6.97071 10.4411 7.00013 10.3823 7.02954 10.294C7.1766 9.85286 7.14718 9.35286 7.00013 8.79404ZM11.1766 8.02933C11.0884 7.9411 10.9707 7.88227 10.8531 7.82345C10.8531 7.79404 10.8237 7.76463 10.8237 7.73521C11.1472 7.79404 11.2648 7.76463 11.2942 7.76463C11.2354 7.85286 11.206 7.9411 11.1766 8.02933ZM10.206 7.79404C9.79424 7.91168 9.1766 8.49992 8.91189 8.82345C8.00013 8.97051 7.23542 8.47051 6.64718 7.35286C6.55895 7.2058 6.64718 6.99992 6.79424 6.91168C7.76483 6.32345 8.47071 5.97051 9.41189 6.82345C9.70601 7.2058 9.76483 7.11757 10.206 7.79404ZM8.73542 5.58815C8.73542 5.64698 8.73542 5.73521 8.76483 5.79404C8.70601 5.79404 8.70601 5.76463 8.47071 5.73521C8.55895 5.7058 8.64718 5.64698 8.73542 5.58815ZM6.55895 6.38227C6.52954 6.32345 6.52954 6.26463 6.50013 6.2058C6.58836 6.23521 6.6766 6.23521 6.79424 6.23521C6.70601 6.29404 6.64718 6.32345 6.55895 6.38227ZM5.91189 7.85286C6.47071 8.76463 6.64718 9.49992 6.4413 10.1176C6.23542 10.7646 5.58836 11.0882 5.23542 11.2352C5.08836 11.294 4.91189 11.2352 4.82366 11.0882C3.85307 9.49992 4.23542 8.58815 5.26483 8.02933C5.32366 7.99992 5.82366 7.7058 5.91189 7.85286ZM4.20601 11.2058C4.23542 11.2646 4.26483 11.3234 4.32366 11.4117C4.55895 11.794 5.02954 11.9705 5.47071 11.794C5.76483 11.6764 6.20601 11.4705 6.55895 11.0882H8.47071C8.55895 11.3529 8.70601 11.5882 8.88248 11.8529C8.97071 11.9705 9.08836 12.0587 9.20601 12.147H4.52954C4.05895 12.1176 3.82366 11.4999 4.20601 11.2058ZM6.38248 19.1176L6.88248 18.2352C8.91189 18.2352 10.7354 18.2352 13.059 18.2352L13.5295 19.1176H6.38248ZM14.3825 16.3529C14.2354 17.0293 13.8531 17.4411 13.206 17.647C12.6766 17.647 8.35307 17.647 6.76483 17.647C6.11777 17.4411 5.73542 17.0293 5.58836 16.3529C5.50013 15.9411 5.55895 15.4705 5.79424 14.9999C5.97071 14.6176 6.05895 14.2352 6.02954 13.8823H11.2942C11.4707 13.8823 11.5884 13.7646 11.5884 13.5882C11.5884 13.4117 11.4707 13.294 11.2942 13.294H5.88248C5.79424 13.0587 5.64718 12.8529 5.47071 12.7058H14.4413C14.2942 12.8529 14.1472 13.0587 14.0295 13.294C13.8237 13.8234 13.8825 14.3823 14.1766 14.9999C14.3825 15.4705 14.4413 15.9411 14.3825 16.3529ZM15.8825 11.5882C15.8825 11.8823 15.6472 12.1176 15.3531 12.1176H10.2648C10.706 11.9117 11.206 11.5882 11.5295 11.0882H15.3825C15.6472 11.0882 15.8825 11.3234 15.8825 11.5882ZM13.706 9.55874C13.3237 10.147 12.5589 10.4117 12.1178 10.4999C12.0001 10.5293 11.8825 10.4705 11.8531 10.3529C11.9413 9.85286 11.8825 9.29404 11.6178 8.7058C11.706 8.17639 11.9707 7.79404 12.2648 7.55874C12.4707 7.47051 12.8531 7.32345 13.0295 7.17639C13.206 7.11757 13.3825 7.05874 13.5001 7.23521C13.5001 7.29404 13.5295 7.38227 13.5589 7.4411C13.6472 7.67639 13.7354 7.91168 13.8531 8.11757C13.9707 8.67639 13.9413 9.17639 13.706 9.55874ZM17.6766 7.99992C17.7354 8.2058 17.6178 8.4411 17.4413 8.52933C17.0884 8.7058 16.559 8.9411 16.0001 8.9411C15.1178 8.9411 14.4707 8.35286 14.0884 7.23521C14.0295 7.08815 14.0589 6.9411 14.1178 6.82345C14.3825 6.7058 14.6178 6.58815 14.8237 6.4411C15.1178 6.35286 15.4119 6.29404 15.7354 6.29404C16.7354 6.32345 17.3825 6.88227 17.6766 7.99992ZM13.2648 3.73521C13.5295 3.29404 14.059 2.99992 14.8237 2.91168C14.8531 2.91168 14.8531 2.91168 14.8825 2.91168C15.0001 2.91168 15.0884 2.97051 15.1766 3.05874C15.3237 3.26462 15.7942 3.9411 15.5884 4.73521C15.4707 5.17639 15.1472 5.58816 14.6178 5.9411C14.2354 6.05874 14.0001 6.14698 13.7942 6.35286C13.6472 6.38227 13.4707 6.29404 13.4119 6.14698C13.1178 5.55874 12.8237 4.47051 13.2648 3.73521ZM12.7354 6.29404C12.7942 6.41168 12.7648 6.55874 12.6766 6.64698C12.4413 6.73521 12.206 6.85286 11.9413 7.02933C10.6472 7.49992 10.0001 6.82345 9.32366 5.64698C9.26483 5.52933 9.32366 5.38227 9.4413 5.29404C9.61777 5.23521 9.88248 5.08815 10.0295 4.97051C10.3531 4.85286 10.6472 4.76463 10.9119 4.76463C11.9413 4.76463 12.5001 5.7058 12.7354 6.29404ZM8.64718 2.05874C8.88248 1.52933 9.35307 1.14698 10.0884 0.882272C10.1178 0.882272 10.1472 0.882272 10.1766 0.882272C10.2648 0.882272 10.3531 0.941096 10.4119 0.999919C10.6766 1.4411 11.0589 2.26463 10.7942 3.11757C10.6472 3.61757 10.2942 4.02933 9.76483 4.41168C9.55895 4.49992 9.38248 4.58815 9.1766 4.73521H9.14718C9.08836 4.4411 8.82366 3.99992 8.64718 3.76463C8.50013 3.23521 8.4413 2.61757 8.64718 2.05874ZM5.26483 3.91168C5.82366 3.52933 6.32366 3.32345 6.79424 3.32345C7.38248 3.32345 7.82366 3.64698 8.11777 4.02933C8.1766 4.26463 8.38248 4.82345 8.55895 5.02933C6.76483 6.2058 5.97071 5.61757 5.20601 4.26463C5.11777 4.14698 5.14718 3.97051 5.26483 3.91168ZM2.47071 5.64698C2.97071 5.29404 3.4413 5.11757 3.91189 5.11757C4.88248 5.11757 5.61777 5.9411 5.97071 6.41168C6.08836 6.58815 6.05895 6.79404 5.91189 6.91168C5.4413 7.29404 4.79424 7.67639 4.1766 7.67639C3.1766 7.67639 2.61777 6.64698 2.35307 6.05874C2.26483 5.9411 2.32366 5.76463 2.47071 5.64698Z" fill="#CE7C64" stroke="#CE7C64" stroke-width="0.3"/>
</svg>
