<svg width="20" height="20" viewBox="0 0 20 20" fill="none" xmlns="http://www.w3.org/2000/svg">
<path d="M6.12193 17.522C6.6216 17.8442 7.1856 18.0127 7.73977 18.0127C7.96843 18.0127 8.19468 17.9834 8.41443 17.9256L8.49743 17.9036C9.09393 17.7457 9.63352 17.4373 10.0567 17.0133C10.6491 16.4225 10.6996 15.4581 10.1779 14.7208C9.66685 13.997 9.09852 13.3229 8.50235 12.6756L12.6755 8.50247C13.3228 9.09864 13.9968 9.66697 14.7206 10.1781C15.0608 10.419 15.4498 10.5377 15.8282 10.5377C16.2684 10.5377 16.6948 10.3766 17.0114 10.0584C17.437 9.63356 17.7455 9.09406 17.9033 8.49756L17.9253 8.41456C18.1248 7.66339 17.9774 6.82764 17.5217 6.12206C16.5858 4.67431 15.3253 3.41372 13.8775 2.47789C13.1711 2.02214 12.337 1.87564 11.585 2.07422L11.502 2.09622C10.9055 2.25414 10.3659 2.56256 9.94277 2.98656C9.35035 3.57739 9.29985 4.54172 9.82152 5.27906C10.3326 6.00289 10.9009 6.67689 11.4971 7.32414L7.32393 11.4973C6.67668 10.9011 6.0026 10.3329 5.27877 9.82172C4.54227 9.30006 3.57627 9.34889 2.98793 9.94139C2.56235 10.3662 2.25385 10.9057 2.09602 11.5022L2.07402 11.5852C1.8746 12.3364 2.02193 13.1721 2.47768 13.8777C3.4136 15.3255 4.67418 16.5861 6.12193 17.522ZM11.1211 4.16497C11.3376 3.94847 11.6167 3.78981 11.9284 3.70764L12.0114 3.68564C12.3109 3.60747 12.66 3.67589 12.9725 3.87772C14.2242 4.68664 15.313 5.77547 16.1219 7.02714C16.3229 7.33881 16.3938 7.68872 16.314 7.98822L16.292 8.07122C16.2098 8.38289 16.0511 8.66206 15.8477 8.86956C15.8347 8.87689 15.7671 8.87772 15.6825 8.81747C14.8085 8.19997 13.9933 7.51289 13.242 6.76189L13.2403 6.75939L13.2379 6.75772C12.4868 6.00639 11.7998 5.19122 11.1823 4.31722C11.1219 4.23172 11.1252 4.16497 11.1211 4.16497ZM3.68543 12.0117L3.70743 11.9287C3.7896 11.6171 3.94835 11.3379 4.15177 11.1304C4.1656 11.1231 4.23235 11.1222 4.31693 11.1825C5.19093 11.8 6.00618 12.4871 6.75743 13.2381L6.7591 13.2406L6.7616 13.2422C7.5126 13.9936 8.19968 14.8087 8.81718 15.6827C8.87743 15.7681 8.87418 15.8349 8.87818 15.8349C8.66168 16.0514 8.3826 16.2101 8.07085 16.2922L7.98785 16.3142C7.69002 16.3931 7.33927 16.3231 7.02677 16.1221C5.7751 15.3132 4.68627 14.2244 3.87735 12.9727C3.67643 12.6611 3.6056 12.3111 3.68543 12.0117ZM17.0708 1.75047C16.7453 1.42497 16.218 1.42497 15.8924 1.75047C15.5668 2.07597 15.5669 2.60331 15.8924 2.92889L17.0708 4.10731C17.2336 4.27006 17.4468 4.35147 17.66 4.35147C17.8732 4.35147 18.0864 4.27006 18.2492 4.10731C18.5747 3.78181 18.5747 3.25447 18.2492 2.92889L17.0708 1.75047ZM2.92852 18.2495C3.09127 18.4122 3.30452 18.4936 3.51768 18.4936C3.73085 18.4936 3.9441 18.4122 4.10685 18.2495C4.43235 17.924 4.43235 17.3966 4.10685 17.0711L2.92843 15.8926C2.60293 15.5671 2.0756 15.5671 1.75002 15.8926C1.42443 16.2181 1.42452 16.7455 1.75002 17.0711L2.92852 18.2495Z" fill="#CE7C64"/>
</svg>
