<svg width="20" height="20" viewBox="0 0 20 20" fill="none" xmlns="http://www.w3.org/2000/svg">
<g clip-path="url(#clip0_2407_11968)">
<path d="M6.87109 9.37488C8.24961 9.37488 9.37109 8.46367 9.37109 7.34363C9.37109 7.26075 9.33817 7.18127 9.27956 7.12266C9.22096 7.06406 9.14147 7.03113 9.05859 7.03113C8.97571 7.03113 8.89623 7.06406 8.83762 7.12266C8.77902 7.18127 8.74609 7.26075 8.74609 7.34363C8.74609 8.03918 8.06918 8.61805 7.18359 8.72996V7.73816C7.21665 7.72168 7.24836 7.70262 7.27844 7.68117L7.80879 7.30269C7.90611 7.23207 7.9852 7.13926 8.03951 7.03197C8.09381 6.92468 8.12177 6.80599 8.12105 6.68574C8.12105 6.27316 7.79824 5.9375 7.40145 5.9375H6.3407C5.94391 5.9375 5.62109 6.27316 5.62109 6.68574C5.62038 6.80599 5.64834 6.92468 5.70264 7.03197C5.75694 7.13926 5.83604 7.23207 5.93336 7.30269L6.46371 7.68117C6.49379 7.70263 6.52552 7.72169 6.55859 7.73816V8.72996C5.67301 8.61805 4.99609 8.03918 4.99609 7.34363C4.99609 7.26075 4.96317 7.18127 4.90456 7.12266C4.84596 7.06406 4.76647 7.03113 4.68359 7.03113C4.60071 7.03113 4.52123 7.06406 4.46262 7.12266C4.40402 7.18127 4.37109 7.26075 4.37109 7.34363C4.37109 8.46367 5.49258 9.37488 6.87109 9.37488ZM6.29648 6.79387C6.28025 6.78099 6.26725 6.76449 6.25851 6.7457C6.24978 6.72691 6.24555 6.70634 6.24617 6.68562C6.24617 6.61883 6.28953 6.56238 6.34078 6.56238H7.40156C7.45285 6.56238 7.49617 6.61883 7.49617 6.68562C7.49678 6.70634 7.49255 6.72691 7.48381 6.74571C7.47507 6.7645 7.46206 6.78099 7.44582 6.79387L6.91547 7.1723C6.90277 7.18209 6.88719 7.1874 6.87115 7.1874C6.85512 7.1874 6.83954 7.18209 6.82684 7.1723L6.29648 6.79387Z" fill="#CE7C64" stroke="#CE7C64" stroke-width="0.3"/>
<path d="M8.74609 5.9375C8.91868 5.9375 9.05859 5.79759 9.05859 5.625C9.05859 5.45241 8.91868 5.3125 8.74609 5.3125C8.5735 5.3125 8.43359 5.45241 8.43359 5.625C8.43359 5.79759 8.5735 5.9375 8.74609 5.9375Z" fill="#CE7C64" stroke="#CE7C64" stroke-width="0.3"/>
<path d="M4.99609 5.9375C5.16868 5.9375 5.30859 5.79759 5.30859 5.625C5.30859 5.45241 5.16868 5.3125 4.99609 5.3125C4.8235 5.3125 4.68359 5.45241 4.68359 5.625C4.68359 5.79759 4.8235 5.9375 4.99609 5.9375Z" fill="#CE7C64" stroke="#CE7C64" stroke-width="0.3"/>
<path d="M15 12.1875C15.2472 12.1875 15.4889 12.1142 15.6945 11.9768C15.9 11.8395 16.0602 11.6443 16.1548 11.4159C16.2495 11.1874 16.2742 10.9361 16.226 10.6936C16.1778 10.4512 16.0587 10.2284 15.8839 10.0536C15.7091 9.8788 15.4863 9.75975 15.2439 9.71152C15.0014 9.66329 14.7501 9.68804 14.5216 9.78265C14.2932 9.87726 14.098 10.0375 13.9607 10.243C13.8233 10.4486 13.75 10.6903 13.75 10.9375C13.7504 11.2689 13.8822 11.5866 14.1165 11.821C14.3509 12.0553 14.6686 12.1871 15 12.1875ZM15 10.3125C15.1236 10.3125 15.2445 10.3492 15.3472 10.4178C15.45 10.4865 15.5301 10.5841 15.5774 10.6983C15.6247 10.8125 15.6371 10.9382 15.613 11.0594C15.5889 11.1807 15.5294 11.292 15.4419 11.3794C15.3545 11.4669 15.2432 11.5264 15.1219 11.5505C15.0007 11.5746 14.875 11.5622 14.7608 11.5149C14.6466 11.4676 14.549 11.3875 14.4803 11.2847C14.4117 11.182 14.375 11.0611 14.375 10.9375C14.3752 10.7718 14.4411 10.6129 14.5583 10.4958C14.6754 10.3786 14.8343 10.3127 15 10.3125Z" fill="#CE7C64" stroke="#CE7C64" stroke-width="0.3"/>
<path d="M19.375 12.8124H17.5V8.74994C17.5 8.68583 17.4802 8.62327 17.4433 8.57084L15.2558 5.44584C15.227 5.40467 15.1887 5.37106 15.1441 5.34786C15.0996 5.32465 15.0501 5.31254 14.9998 5.31254C14.9496 5.31254 14.9001 5.32465 14.8555 5.34786C14.8109 5.37106 14.7726 5.40467 14.7438 5.44584L12.5563 8.57084C12.5195 8.6233 12.4998 8.68586 12.5 8.74994V10.7055C12.072 10.1302 11.5011 9.65287 10.7961 9.28467C11.4922 8.46654 11.8715 7.40349 11.8715 6.24994C11.8731 5.74023 11.7958 5.23333 11.6423 4.74728C11.9466 4.58662 12.2088 4.3564 12.4075 4.07534C12.6061 3.79428 12.7357 3.47031 12.7855 3.12977C12.8354 2.78923 12.8042 2.44172 12.6945 2.11549C12.5848 1.78927 12.3997 1.49353 12.1542 1.25233C11.9087 1.01112 11.6097 0.831246 11.2816 0.727331C10.9535 0.623415 10.6055 0.598389 10.2659 0.654287C9.92626 0.710184 9.60463 0.845427 9.32713 1.04902C9.04963 1.25262 8.82409 1.51882 8.66883 1.82599C8.08673 1.64664 7.48054 1.55775 6.87145 1.56244C6.2624 1.55775 5.65624 1.64665 5.07418 1.82603C4.91893 1.51886 4.69339 1.25265 4.4159 1.04905C4.1384 0.845454 3.81677 0.710207 3.47717 0.654305C3.13756 0.598403 2.78956 0.623425 2.46144 0.727336C2.13332 0.831247 1.83436 1.01111 1.58884 1.25232C1.34332 1.49352 1.15819 1.78926 1.04848 2.11548C0.93877 2.4417 0.907586 2.78921 0.957462 3.12976C1.00734 3.4703 1.13686 3.79427 1.33552 4.07533C1.53417 4.35639 1.79633 4.58661 2.10071 4.74728C1.94717 5.23333 1.86984 5.74022 1.87145 6.24994C1.87145 7.40349 2.2509 8.46658 2.9468 9.28467C1.4254 10.0793 0.528364 11.3825 0.344341 13.0792C0.34395 13.0831 0.34356 13.087 0.343286 13.0909L0.313247 13.5199C0.312251 13.534 0.312251 13.5481 0.313247 13.5622C0.338233 13.928 0.469695 14.2785 0.691431 14.5705C0.913167 14.8625 1.21549 15.0832 1.56114 15.2055C1.35496 15.628 1.2485 16.0923 1.24997 16.5624C1.24997 18.1132 2.37145 19.3749 3.74997 19.3749C4.49215 19.3749 5.15946 19.0088 5.61774 18.4292C6.00336 18.6396 6.43565 18.7499 6.87497 18.7499C7.31429 18.7499 7.74658 18.6396 8.13219 18.4292C8.59047 19.0088 9.25778 19.3749 9.99997 19.3749C10.9795 19.3749 11.8288 18.7376 12.2386 17.8124H19.375C19.4578 17.8124 19.5373 17.7795 19.5959 17.7209C19.6545 17.6623 19.6875 17.5828 19.6875 17.4999V13.1249C19.6875 13.0421 19.6545 12.9626 19.5959 12.904C19.5373 12.8454 19.4578 12.8124 19.375 12.8124ZM15 6.16986L16.5873 8.43744H13.4127L15 6.16986ZM13.125 9.06244H16.875V12.8124H13.3626C13.3133 12.4931 13.2338 12.1792 13.125 11.8749V9.06244ZM12.1877 15.2033C12.4822 15.0976 12.7458 14.9203 12.9547 14.6874H13.4375V15.9374H12.437C12.3858 15.683 12.3021 15.4363 12.1877 15.2033ZM12.7765 13.1408L12.8047 13.5413C12.7822 13.8058 12.6762 14.0563 12.5021 14.2567C12.328 14.4571 12.0947 14.597 11.8359 14.6562C11.4441 14.179 10.9078 13.8549 10.3059 13.7719C10.249 12.5008 9.82051 11.328 9.12051 10.5069C9.56185 10.3205 9.97111 10.0657 10.3333 9.75209C11.7647 10.4378 12.6082 11.6051 12.7765 13.1406V13.1408ZM10.6215 1.24994C10.9648 1.24983 11.2986 1.36282 11.5713 1.57145C11.8441 1.78007 12.0404 2.07272 12.1302 2.40415C12.2199 2.73557 12.1979 3.08733 12.0677 3.40503C11.9375 3.72274 11.7063 3.9887 11.4097 4.16181C11.1916 3.70469 10.8955 3.28905 10.5347 2.93353C10.1625 2.5684 9.72982 2.27044 9.25594 2.05283C9.39162 1.80969 9.58967 1.60712 9.82969 1.46599C10.0697 1.32487 10.343 1.25029 10.6215 1.24994ZM1.55895 2.81244C1.55886 2.46627 1.67372 2.12987 1.88551 1.85606C2.0973 1.58224 2.39403 1.3865 2.7291 1.29958C3.06418 1.21266 3.41863 1.23947 3.73682 1.3758C4.05501 1.51213 4.31892 1.75027 4.48711 2.05283C4.01323 2.27041 3.58058 2.56838 3.20833 2.93353C2.84755 3.28903 2.55145 3.70465 2.33333 4.16177C2.09787 4.02383 1.90256 3.82675 1.76673 3.59007C1.6309 3.35339 1.55927 3.08532 1.55895 2.81244ZM3.64657 3.37916C4.43938 2.59955 5.55465 2.18744 6.87145 2.18744C8.18825 2.18744 9.30352 2.59955 10.0964 3.3792C10.838 4.10849 11.2465 5.12799 11.2465 6.24994C11.2465 7.37189 10.838 8.39138 10.0964 9.12068C9.30352 9.90033 8.18836 10.3124 6.87145 10.3124C5.55454 10.3124 4.43938 9.90033 3.64657 9.12072C2.90489 8.39138 2.49645 7.37189 2.49645 6.24994C2.49645 5.12799 2.90489 4.10849 3.64657 3.37916ZM0.938286 13.5412L0.966333 13.1407C1.13473 11.6051 1.97805 10.4378 3.40958 9.75197C3.77335 10.067 4.1846 10.3226 4.62813 10.5092C3.9302 11.3306 3.50129 12.5068 3.44407 13.7717C2.84161 13.8549 2.30465 14.1796 1.9129 14.6574C1.65284 14.5992 1.41811 14.4596 1.24283 14.2589C1.06755 14.0582 0.960868 13.8068 0.938286 13.5412ZM3.74997 18.7499C2.71606 18.7499 1.87497 17.7686 1.87497 16.5624C1.87497 15.3562 2.71606 14.3749 3.74997 14.3749C4.78387 14.3749 5.62497 15.3562 5.62497 16.5624C5.62497 17.7686 4.78387 18.7499 3.74997 18.7499ZM6.87497 18.1249C6.55288 18.1239 6.23573 18.0458 5.94997 17.8972C6.14891 17.4804 6.25144 17.0242 6.24997 16.5624C6.24997 15.1336 5.29774 13.9511 4.06981 13.7738C4.12989 12.555 4.56774 11.441 5.27083 10.7317C5.79279 10.8715 6.33112 10.9406 6.87145 10.9374C7.41361 10.9407 7.95375 10.8711 8.47735 10.7304C9.18266 11.4394 9.62051 12.5491 9.68024 13.7738C8.45227 13.951 7.49997 15.1335 7.49997 16.5624C7.49849 17.0242 7.60103 17.4804 7.79997 17.8972C7.5142 18.0458 7.19705 18.1239 6.87497 18.1249ZM9.99997 18.7499C8.96606 18.7499 8.12497 17.7686 8.12497 16.5624C8.12497 15.3562 8.96606 14.3749 9.99997 14.3749C11.0339 14.3749 11.875 15.3562 11.875 16.5624C11.875 17.7686 11.0339 18.7499 9.99997 18.7499ZM12.5 16.5624H13.75C13.8328 16.5624 13.9123 16.5295 13.9709 16.4709C14.0295 16.4123 14.0625 16.3328 14.0625 16.2499V14.3749C14.0625 14.2921 14.0295 14.2126 13.9709 14.154C13.9123 14.0954 13.8328 14.0624 13.75 14.0624H13.3264C13.3837 13.9012 13.4185 13.7329 13.4298 13.5622C13.4307 13.5481 13.4307 13.534 13.4298 13.5199L13.424 13.4374H14.6875V17.1874H12.437C12.4788 16.9817 12.4999 16.7724 12.5 16.5624ZM19.0625 17.1874H15.3125V13.4374H19.0625V17.1874Z" fill="#CE7C64" stroke="#CE7C64" stroke-width="0.3"/>
<path d="M16.25 16.5625H18.125C18.1783 16.5625 18.2306 16.5489 18.2772 16.5229C18.3237 16.497 18.3628 16.4596 18.3908 16.4143C18.4188 16.3689 18.4348 16.3172 18.4372 16.264C18.4396 16.2108 18.4283 16.1579 18.4045 16.1102L17.467 14.2352C17.441 14.1833 17.4011 14.1397 17.3518 14.1092C17.3024 14.0787 17.2455 14.0625 17.1875 14.0625C17.1295 14.0625 17.0726 14.0787 17.0232 14.1092C16.9739 14.1397 16.934 14.1833 16.908 14.2352L15.9705 16.1102C15.9467 16.1579 15.9354 16.2108 15.9378 16.264C15.9402 16.3172 15.9562 16.3689 15.9842 16.4143C16.0122 16.4596 16.0513 16.497 16.0978 16.5229C16.1443 16.5489 16.1967 16.5625 16.25 16.5625ZM17.1875 15.0738L17.6194 15.9375H16.7556L17.1875 15.0738Z" fill="#CE7C64" stroke="#CE7C64" stroke-width="0.3"/>
</g>
<defs>
<clipPath id="clip0_2407_11968">
<rect width="20" height="20" fill="white"/>
</clipPath>
</defs>
</svg>
