<svg width="20" height="20" viewBox="0 0 20 20" fill="none" xmlns="http://www.w3.org/2000/svg">
<path d="M16.7588 15.5751L12.5004 8.27508V4.33341H13.3338C13.5548 4.33341 13.7668 4.24562 13.923 4.08934C14.0793 3.93306 14.1671 3.7211 14.1671 3.50008C14.1671 3.27907 14.0793 3.06711 13.923 2.91083C13.7668 2.75455 13.5548 2.66675 13.3338 2.66675H6.66711C6.4461 2.66675 6.23414 2.75455 6.07786 2.91083C5.92158 3.06711 5.83378 3.27907 5.83378 3.50008C5.83378 3.7211 5.92158 3.93306 6.07786 4.08934C6.23414 4.24562 6.4461 4.33341 6.66711 4.33341H7.50045V8.27508L3.24211 15.5751C3.0209 15.9548 2.90371 16.3862 2.90236 16.8257C2.901 17.2652 3.01553 17.6973 3.2344 18.0784C3.45327 18.4595 3.76875 18.7762 4.14903 18.9966C4.52931 19.2169 4.96095 19.3331 5.40045 19.3334H14.5671C15.0066 19.3331 15.4383 19.2169 15.8185 18.9966C16.1988 18.7762 16.5143 18.4595 16.7332 18.0784C16.952 17.6973 17.0666 17.2652 17.0652 16.8257C17.0639 16.3862 16.9467 15.9548 16.7254 15.5751H16.7588ZM9.05045 8.90841C9.12395 8.78466 9.16414 8.64398 9.16711 8.50008V4.33341H10.8338V8.50008C10.8353 8.64682 10.8755 8.79055 10.9504 8.91675L11.6671 10.1667H8.33378L9.05045 8.90841ZM15.3171 17.2417C15.2444 17.3677 15.14 17.4724 15.0143 17.5455C14.8885 17.6186 14.7459 17.6575 14.6004 17.6584H5.43378C5.28835 17.6575 5.14569 17.6186 5.01996 17.5455C4.89423 17.4724 4.78983 17.3677 4.71711 17.2417C4.64397 17.1151 4.60547 16.9714 4.60547 16.8251C4.60547 16.6788 4.64397 16.5351 4.71711 16.4084L7.35878 11.8334H12.6504L15.3171 16.4167C15.3903 16.5434 15.4288 16.6871 15.4288 16.8334C15.4288 16.9797 15.3903 17.1234 15.3171 17.2501V17.2417ZM8.33378 13.5001C8.16896 13.5001 8.00785 13.549 7.8708 13.6405C7.73376 13.7321 7.62695 13.8622 7.56388 14.0145C7.50081 14.1668 7.4843 14.3343 7.51646 14.496C7.54861 14.6576 7.62798 14.8061 7.74452 14.9227C7.86107 15.0392 8.00955 15.1186 8.17121 15.1507C8.33286 15.1829 8.50041 15.1664 8.65268 15.1033C8.80496 15.0402 8.9351 14.9334 9.02667 14.7964C9.11824 14.6593 9.16711 14.4982 9.16711 14.3334C9.16711 14.1124 9.07932 13.9004 8.92304 13.7442C8.76676 13.5879 8.55479 13.5001 8.33378 13.5001ZM11.6671 14.3334C11.5023 14.3334 11.3412 14.3823 11.2041 14.4739C11.0671 14.5654 10.9603 14.6956 10.8972 14.8478C10.8341 15.0001 10.8176 15.1677 10.8498 15.3293C10.8819 15.491 10.9613 15.6395 11.0779 15.756C11.1944 15.8725 11.3429 15.9519 11.5045 15.9841C11.6662 16.0162 11.8337 15.9997 11.986 15.9366C12.1383 15.8736 12.2684 15.7668 12.36 15.6297C12.4516 15.4927 12.5004 15.3316 12.5004 15.1667C12.5004 14.9457 12.4126 14.7338 12.2564 14.5775C12.1001 14.4212 11.8881 14.3334 11.6671 14.3334Z" fill="#CE7C64"/>
</svg>
