<svg width="20" height="20" viewBox="0 0 20 20" fill="none" xmlns="http://www.w3.org/2000/svg">
<g clip-path="url(#clip0_2394_21295)">
<path d="M7.41987 7.93774C7.34648 7.93774 7.27479 7.95951 7.21376 8.00029C7.15273 8.04106 7.10511 8.09903 7.07702 8.16684C7.04893 8.23465 7.04166 8.30926 7.05598 8.38125C7.0703 8.45324 7.10565 8.51936 7.15755 8.57126C7.20945 8.62316 7.27553 8.65849 7.34752 8.67281C7.4195 8.68713 7.49409 8.67979 7.5619 8.6517C7.62971 8.62361 7.68774 8.57605 7.72852 8.51502C7.76929 8.45399 7.79098 8.38224 7.79098 8.30885C7.79094 8.21044 7.75188 8.11607 7.6823 8.04648C7.61271 7.9769 7.51828 7.93778 7.41987 7.93774Z" fill="#CE7C64" stroke="#CE7C64" stroke-width="0.4"/>
<path d="M5.1933 2C2.95059 2 1 3.81306 1 6.08199V14.9884C1 17.258 2.95133 19.0704 5.1933 19.0704C7.43183 19.0704 9.38669 17.2609 9.38669 14.9884V6.08199C9.38669 3.81237 7.43512 2 5.1933 2ZM8.64449 14.9884C8.64449 16.8678 7.00006 18.3282 5.1933 18.3282C3.32258 18.3282 1.7422 16.7988 1.7422 14.9884V10.9064H8.64468L8.64449 14.9884ZM8.64449 10.1642H1.7422V6.08199C1.7422 4.27149 3.32267 2.74216 5.19339 2.74216C7.06411 2.74216 8.64459 4.27159 8.64459 6.08199L8.64449 10.1642Z" fill="#CE7C64" stroke="#CE7C64" stroke-width="0.4"/>
<path d="M6.05953 3.6324C6.0136 3.61613 5.96493 3.60905 5.91626 3.61159C5.86759 3.61413 5.81987 3.62623 5.77587 3.6472C5.73188 3.66817 5.69242 3.6976 5.6598 3.73382C5.62718 3.77003 5.60209 3.81232 5.58581 3.85825C5.56953 3.90419 5.56242 3.95288 5.56496 4.00155C5.5675 4.05022 5.57963 4.09791 5.60061 4.1419C5.62158 4.18589 5.65097 4.22532 5.68718 4.25794C5.72339 4.29056 5.76568 4.31573 5.81162 4.332C6.17311 4.4604 6.48607 4.69744 6.70757 5.01064C6.92907 5.32385 7.04828 5.69789 7.04888 6.0815V6.82371C7.04888 6.92213 7.08797 7.01652 7.15756 7.08612C7.22716 7.15571 7.32156 7.19481 7.41999 7.19481C7.51841 7.19481 7.61281 7.15571 7.68241 7.08612C7.752 7.01652 7.79109 6.92213 7.79109 6.82371V6.0815C7.79026 5.54455 7.6234 5.02098 7.31342 4.58254C7.00344 4.14409 6.56548 3.81223 6.05953 3.6324Z" fill="#CE7C64" stroke="#CE7C64" stroke-width="0.4"/>
<path d="M15.0644 9.31055C12.4625 9.31055 10.1289 11.5208 10.1289 14.2461C10.1289 16.9077 12.403 19.1816 15.0644 19.1816C17.7156 19.1816 20 16.9283 20 14.2461C20 11.5844 17.7258 9.31055 15.0644 9.31055ZM15.0644 18.4394C12.7914 18.4394 10.8711 16.5191 10.8711 14.2461C10.8764 13.2659 11.2309 12.3197 11.8709 11.5774L17.733 17.4395C16.991 18.0801 16.0447 18.4347 15.0644 18.4394ZM18.2579 16.9147L12.3961 11.0528C13.1549 10.4132 14.1067 10.0527 15.0644 10.0527C17.3374 10.0527 19.2578 11.973 19.2578 14.246C19.2531 15.2263 18.8985 16.1727 18.2579 16.9147Z" fill="#CE7C64" stroke="#CE7C64" stroke-width="0.4"/>
</g>
<defs>
<clipPath id="clip0_2394_21295">
<rect width="20" height="20" fill="white"/>
</clipPath>
</defs>
</svg>
