<svg width="20" height="20" viewBox="0 0 20 20" fill="none" xmlns="http://www.w3.org/2000/svg">
<g clip-path="url(#clip0_2394_21335)">
<path d="M18.6069 7.39162C18.3384 7.25778 18.0425 7.18794 17.7425 7.18756H16.7466C14.3157 7.18793 11.894 7.48609 9.53563 8.07537C9.40335 8.10828 9.26756 8.12496 9.13125 8.12506C9.04486 8.12409 8.95965 8.10481 8.88125 8.06849C9.02925 8.01407 9.16086 7.92266 9.26353 7.80297C9.36621 7.68328 9.43653 7.5393 9.46781 7.38474L9.66594 6.39506C9.68081 6.31941 9.68803 6.24246 9.6875 6.16537C9.68692 5.8928 9.59085 5.62906 9.41597 5.41998C9.2411 5.21091 8.99849 5.06973 8.73031 5.02099C8.73906 4.83349 8.75 4.64599 8.75 4.45537C8.74955 3.73476 8.56588 3.0261 8.21625 2.39599C7.78037 1.61165 7.09639 0.994244 6.27166 0.64068C5.44693 0.287117 4.52814 0.217413 3.65951 0.442508C2.79088 0.667604 2.02159 1.17476 1.47237 1.88436C0.923145 2.59397 0.625096 3.46586 0.625 4.36318C0.625348 5.03981 0.728828 5.71243 0.931875 6.35787C0.682037 6.47944 0.487388 6.69096 0.386952 6.95002C0.286516 7.20908 0.287716 7.49653 0.390313 7.75474L0.819375 8.82724C0.866471 8.94565 0.93903 9.05226 1.03191 9.1395C1.12479 9.22674 1.23573 9.2925 1.35685 9.33209C1.47797 9.37169 1.60632 9.38417 1.7328 9.36864C1.85928 9.35312 1.9808 9.30996 2.08875 9.24224L2.59781 10.4785C2.73986 10.8222 2.81282 11.1906 2.8125 11.5626V12.2476C1.83995 12.4755 0.924984 12.9019 0.125 13.5001L0.5 14.0001C1.28641 13.4122 2.19373 13.0065 3.15625 12.8126L3.1875 12.8063C3.25809 12.7919 3.32153 12.7535 3.36708 12.6977C3.41264 12.6419 3.43752 12.5721 3.4375 12.5001V12.1485H3.43969C3.44504 12.3262 3.51928 12.4948 3.6467 12.6187C3.77413 12.7426 3.94475 12.8121 4.1225 12.8126C4.31307 12.8124 4.50305 12.7915 4.68906 12.7501L7.0625 12.2229C7.105 12.2135 7.14875 12.2116 7.19188 12.2057C7.19188 12.2151 7.18813 12.2235 7.18813 12.2332C7.18837 12.4695 7.28233 12.6961 7.4494 12.8633C7.61647 13.0305 7.84302 13.1246 8.07938 13.1251H8.80063C9.04278 13.1234 9.28088 13.0628 9.49438 12.9485L10.9344 13.3597C11.1146 13.4114 11.3012 13.4376 11.4888 13.4376C11.7572 13.4385 12.0205 13.3643 12.249 13.2233C12.4774 13.0823 12.6618 12.8801 12.7813 12.6397L12.2219 12.3604C12.1543 12.4969 12.0498 12.6117 11.9202 12.6916C11.7905 12.7716 11.641 12.8135 11.4888 12.8126C11.4547 12.8126 11.4209 12.8079 11.3869 12.8054C12.2071 12.1158 13.1833 11.6371 14.2306 11.4107C14.2899 11.3979 14.3442 11.3682 14.3869 11.3251C15.3098 10.3932 16.4814 9.74687 17.7619 9.46318L18.1919 9.36943L18.0563 8.75881L17.6263 8.85443C16.529 9.09913 15.5014 9.58897 14.6203 10.2872C14.3114 10.261 14.0049 10.2109 13.7038 10.1372C13.0526 9.97445 12.3735 9.95823 11.7153 10.0897C11.1237 10.2086 10.5647 10.4538 10.0766 10.8085C10.0697 10.7976 10.0647 10.786 10.0578 10.7754L9.63406 10.1397L9.11406 10.4866L9.5375 11.1219C9.62642 11.2554 9.67747 11.4105 9.68522 11.5706C9.69297 11.7308 9.65713 11.8901 9.58151 12.0315C9.5059 12.1729 9.39334 12.2912 9.25582 12.3737C9.11831 12.4562 8.96099 12.4999 8.80063 12.5001H8.07938C8.01924 12.5001 7.96085 12.4798 7.91368 12.4425C7.86652 12.4052 7.83334 12.353 7.81952 12.2945C7.8057 12.236 7.81205 12.1745 7.83755 12.12C7.86305 12.0656 7.9062 12.0213 7.96 11.9944C8.11707 11.9161 8.29013 11.8753 8.46563 11.8751H9.0625V11.2501H8.46563C8.19307 11.2504 7.92429 11.3139 7.68031 11.4354C7.60772 11.4718 7.54052 11.518 7.48063 11.5729C7.29488 11.5622 7.10853 11.5756 6.92625 11.6129L4.55375 12.1404C4.41214 12.1717 4.26754 12.1875 4.1225 12.1876C4.10846 12.1877 4.09483 12.1829 4.08397 12.174C4.07311 12.1651 4.06572 12.1526 4.06308 12.1388C4.06044 12.125 4.06272 12.1108 4.06952 12.0985C4.07633 12.0862 4.08722 12.0767 4.10031 12.0716L6.99125 10.9154L6.75875 10.3347L3.86844 11.491C3.83484 11.5071 3.80264 11.5261 3.77219 11.5476L3.74094 11.5554C3.70503 11.5632 3.66783 11.5631 3.63199 11.555C3.59614 11.5468 3.56253 11.5309 3.53356 11.5082C3.50458 11.4856 3.48095 11.4569 3.46435 11.4241C3.44774 11.3913 3.43858 11.3552 3.4375 11.3185C3.43736 11.262 3.45304 11.2067 3.48275 11.1587C3.51247 11.1107 3.55503 11.072 3.60563 11.0469C4.60891 10.5447 5.65663 10.1367 6.73531 9.82818L7.27344 9.67443L7.10156 9.07318L6.5625 9.22818C5.58082 9.51067 4.6238 9.87271 3.70094 10.3107C3.69392 10.3103 3.68689 10.3109 3.68 10.3122C3.61541 10.3122 3.55349 10.2864 3.50785 10.2407C3.4622 10.195 3.43656 10.1331 3.43656 10.0685C3.43674 10.0063 3.45293 9.94517 3.48358 9.89104C3.51423 9.83691 3.55831 9.79158 3.61156 9.75943C4.40888 9.28199 5.26534 8.91113 6.15906 8.65631L6.96094 8.42724L6.78906 7.82599L5.9875 8.05506C5.38194 8.23031 4.79216 8.45611 4.22438 8.73006C4.17674 8.71155 4.13581 8.6791 4.10692 8.63695C4.07804 8.5948 4.06256 8.5449 4.0625 8.49381C4.06262 8.44113 4.07727 8.38952 4.10484 8.34464C4.13241 8.29976 4.17182 8.26335 4.21875 8.23943L5.20469 7.74662C5.52936 7.58468 5.88718 7.50028 6.25 7.50006H6.875C7.03217 7.49956 7.18788 7.53027 7.33309 7.5904C7.4783 7.65054 7.61013 7.7389 7.72094 7.85037L8.25938 8.38912C8.49123 8.6194 8.80447 8.74908 9.13125 8.75006C9.31879 8.75004 9.50561 8.72695 9.6875 8.68131C11.9963 8.10474 14.3669 7.81298 16.7466 7.81256H17.7425C17.9163 7.81305 18.0884 7.84777 18.2488 7.91475C18.4092 7.98173 18.5549 8.07965 18.6774 8.20292C18.8 8.32619 18.8971 8.4724 18.9632 8.63319C19.0292 8.79399 19.063 8.96622 19.0625 9.14006C19.0619 9.42776 18.9687 9.70764 18.7966 9.93818C18.3758 10.4991 18.0307 11.113 17.7703 11.7641C17.2142 13.1502 16.3323 14.3819 15.1994 15.3551C14.8928 15.6177 14.6635 15.9589 14.5359 16.3419L13.4534 19.5888L14.0472 19.7863L15.1294 16.5397C15.2213 16.2642 15.3862 16.0187 15.6066 15.8294C16.8162 14.7907 17.7577 13.4758 18.3513 11.996C18.591 11.3958 18.9089 10.8297 19.2966 10.3126C19.5495 9.97391 19.6866 9.56275 19.6875 9.14006C19.6888 8.77674 19.5883 8.42034 19.3973 8.11129C19.2062 7.80223 18.9324 7.55291 18.6069 7.39162ZM11.8391 10.701C12.4065 10.5883 12.9917 10.6022 13.5531 10.7416C13.6928 10.7766 13.8344 10.8041 13.9778 10.8282C12.7276 11.1207 11.5783 11.7422 10.6491 12.6282L10.0538 12.4582C10.2224 12.2091 10.3126 11.9152 10.3125 11.6144C10.3118 11.5535 10.3073 11.4926 10.2991 11.4322C10.7458 11.0677 11.2742 10.8168 11.8391 10.701ZM9.0625 6.16537C9.06254 6.20095 9.05898 6.23644 9.05188 6.27131L8.85406 7.26193C8.84413 7.31317 8.82074 7.36084 8.78629 7.40005C8.75184 7.43926 8.70758 7.4686 8.65804 7.48504C8.60851 7.50149 8.55549 7.50446 8.50443 7.49364C8.45337 7.48283 8.40611 7.45861 8.3675 7.42349C8.51693 6.84185 8.62223 6.24975 8.6825 5.65224C8.79224 5.68613 8.88829 5.75419 8.95665 5.84649C9.025 5.93879 9.06209 6.05051 9.0625 6.16537ZM1.62844 8.75006C1.579 8.75013 1.53069 8.73525 1.48986 8.70736C1.44903 8.67948 1.4176 8.63989 1.39969 8.59381L0.970625 7.52318C0.947902 7.46473 0.936656 7.40245 0.9375 7.33974C0.938876 7.26386 0.958857 7.18947 0.995689 7.1231C1.03252 7.05674 1.08508 7.00043 1.14875 6.95912L1.83781 8.63256C1.81573 8.66828 1.78493 8.6978 1.74831 8.71836C1.71168 8.73891 1.67043 8.74982 1.62844 8.75006ZM2.22438 7.92974C2.53725 8.16966 2.79236 8.47667 2.97094 8.82818C3.0486 8.98088 3.13825 9.12717 3.23906 9.26568C3.10536 9.35823 2.99678 9.48259 2.92313 9.62756L2.22438 7.92974ZM6.25 6.87506C5.79055 6.87568 5.33748 6.98264 4.92625 7.18756L3.94031 7.68037C3.80428 7.74793 3.6875 7.84874 3.6008 7.97345C3.51411 8.09817 3.4603 8.24275 3.44438 8.39381C3.12599 7.83555 2.65027 7.38342 2.07656 7.09381L1.83 6.97068L1.70688 6.67193C1.40468 5.93975 1.24944 5.15528 1.25 4.36318C1.25004 3.60429 1.50207 2.86689 1.96655 2.26673C2.43102 1.66658 3.08163 1.23765 3.81626 1.04727C4.55089 0.856888 5.32793 0.91584 6.02543 1.21487C6.72293 1.5139 7.30139 2.03607 7.67 2.69943C7.96808 3.23682 8.12465 3.84116 8.125 4.45568C8.12275 5.35626 8.01291 6.25335 7.79781 7.12787C7.51852 6.9622 7.19973 6.87487 6.875 6.87506H6.25Z" fill="#CE7C64" stroke="#CE7C64" stroke-width="0.2"/>
<path d="M7.81273 15H7.18773V16.3028C7.18771 17.5519 7.52721 18.7774 8.16992 19.8484L8.70555 19.5266C8.12135 18.5527 7.81275 17.4384 7.81273 16.3028V15ZM5.31273 16.3028C5.31272 17.4384 5.00412 18.5527 4.41992 19.5266L4.95555 19.8484C5.59826 18.7774 5.93776 17.5519 5.93773 16.3028V15H5.31273V16.3028Z" fill="#CE7C64" stroke="#CE7C64" stroke-width="0.2"/>
</g>
<defs>
<clipPath id="clip0_2394_21335">
<rect width="20" height="20" fill="white"/>
</clipPath>
</defs>
</svg>
