<svg width="20" height="20" viewBox="0 0 20 20" fill="none" xmlns="http://www.w3.org/2000/svg">
<g clip-path="url(#clip0_2394_21243)">
<path fill-rule="evenodd" clip-rule="evenodd" d="M10.2918 6.33674H9.71244C9.20055 6.33674 8.78711 5.92048 8.78711 5.41141V4.71953C8.78711 4.59015 8.89117 4.48608 9.02055 4.48608C9.14993 4.48608 9.25399 4.59015 9.25399 4.71953V5.41141C9.25399 5.66173 9.45931 5.86704 9.71244 5.86704H10.2918C10.5449 5.86704 10.7503 5.66173 10.7503 5.41141V4.71953C10.7503 4.59015 10.8543 4.48608 10.9837 4.48608C11.1131 4.48608 11.22 4.59015 11.22 4.71953V5.41141C11.22 5.92048 10.8037 6.33674 10.2918 6.33674ZM10.2918 8.55021H9.71244C9.20055 8.55021 8.78711 8.13677 8.78711 7.62488V6.933C8.78711 6.80362 8.89117 6.69956 9.02055 6.69956C9.14993 6.69956 9.25399 6.80362 9.25399 6.933V7.62488C9.25399 7.87801 9.45931 8.08333 9.71244 8.08333H10.2918C10.5449 8.08333 10.7503 7.87801 10.7503 7.62488V6.933C10.7503 6.80362 10.8543 6.69956 10.9837 6.69956C11.1131 6.69956 11.22 6.80362 11.22 6.933V7.62488C11.22 8.13677 10.8037 8.55021 10.2918 8.55021ZM10.2918 10.6737H9.71244C9.20055 10.6737 8.78711 10.2602 8.78711 9.74835V9.05928C8.78711 8.9299 8.89117 8.82303 9.02055 8.82303C9.14993 8.82303 9.25399 8.9299 9.25399 9.05928V9.74835C9.25399 10.0015 9.45931 10.2068 9.71244 10.2068H10.2918C10.5449 10.2068 10.7503 10.0015 10.7503 9.74835V9.05928C10.7503 8.9299 10.8543 8.82303 10.9837 8.82303C11.1131 8.82303 11.22 8.9299 11.22 9.05928V9.74835C11.22 10.2602 10.8037 10.6737 10.2918 10.6737ZM10.2918 12.8393H9.71244C9.20055 12.8393 8.78711 12.4231 8.78711 11.914V11.2221C8.78711 11.0927 8.89117 10.9887 9.02055 10.9887C9.14993 10.9887 9.25399 11.0927 9.25399 11.2221V11.914C9.25399 12.1643 9.45931 12.3696 9.71244 12.3696H10.2918C10.5449 12.3696 10.7503 12.1643 10.7503 11.914V11.2221C10.7503 11.0927 10.8543 10.9887 10.9837 10.9887C11.1131 10.9887 11.22 11.0927 11.22 11.2221V11.914C11.22 12.4231 10.8037 12.8393 10.2918 12.8393ZM10.2918 15.0022H9.71244C9.20055 15.0022 8.78711 14.5887 8.78711 14.0769V13.385C8.78711 13.2556 8.89117 13.1515 9.02055 13.1515C9.14993 13.1515 9.25399 13.2556 9.25399 13.385V14.0769C9.25399 14.33 9.45931 14.5353 9.71244 14.5353H10.2918C10.5449 14.5353 10.7503 14.33 10.7503 14.0769V13.385C10.7503 13.2556 10.8543 13.1515 10.9837 13.1515C11.1131 13.1515 11.22 13.2556 11.22 13.385V14.0769C11.22 14.5887 10.8037 15.0022 10.2918 15.0022Z" fill="#CE7C64" stroke="#CE7C64" stroke-width="0.4"/>
<path fill-rule="evenodd" clip-rule="evenodd" d="M4.61282 16.836C4.59595 16.836 4.57626 16.836 4.55938 16.8304C4.43282 16.8023 4.35407 16.6757 4.38501 16.5491C4.39907 16.4788 4.80408 14.7913 5.78003 14.4425C6.18503 14.2963 6.61535 14.3947 7.05974 14.7322C9.72603 16.7741 10.2773 16.7741 12.9464 14.7322C13.388 14.3947 13.8183 14.2963 14.2261 14.4425C15.2021 14.7913 15.6042 16.4788 15.6211 16.5491C15.6492 16.6757 15.5705 16.8023 15.4467 16.8304C15.3202 16.8613 15.1936 16.7826 15.1627 16.656C15.067 16.2369 14.6789 15.1007 14.0658 14.8841C13.8155 14.7941 13.5427 14.8672 13.2305 15.1063C11.8157 16.1863 10.9298 16.7376 10.0017 16.7376C9.07633 16.7376 8.18757 16.1863 6.77286 15.1063C6.46066 14.8672 6.18785 14.7941 5.93753 14.8841C5.3244 15.1035 4.93908 16.2369 4.84064 16.656C4.81533 16.7629 4.7197 16.836 4.61282 16.836ZM6.10066 6.8318C5.81097 6.8318 5.51284 6.76711 5.21752 6.63492C4.74782 6.42679 4.63251 6.12022 4.61563 5.90084C4.5847 5.45084 4.93345 4.91927 5.67878 4.28082C6.1991 3.83925 6.71379 3.51299 6.73629 3.49893C6.84598 3.43143 6.98942 3.46237 7.05974 3.57206C7.12724 3.68175 7.0963 3.828 6.98661 3.8955C6.23004 4.37082 5.04595 5.32708 5.08252 5.86991C5.08814 5.91772 5.09939 6.0696 5.40877 6.20741C6.39879 6.64898 7.17505 6.08647 7.56881 5.41427C7.63349 5.30177 7.77693 5.26521 7.88944 5.3299C8.00194 5.39459 8.0385 5.53803 7.97381 5.65053C7.52381 6.41554 6.84036 6.8318 6.10066 6.8318ZM5.21471 9.06777C4.9672 9.06777 4.75345 9.01152 4.57345 8.8962C3.83937 8.43213 4.03625 7.2368 4.04469 7.18618C4.06719 7.05961 4.18813 6.97524 4.31751 6.99774C4.44407 7.02024 4.52845 7.14118 4.50876 7.26774C4.46376 7.52649 4.43282 8.25494 4.82376 8.49963C5.09658 8.6712 5.83628 8.7612 7.72912 7.42243C7.83319 7.34649 7.97944 7.3718 8.05538 7.47587C8.1285 7.58275 8.10319 7.729 7.99913 7.80494C6.80661 8.6487 5.8869 9.06777 5.21471 9.06777ZM4.73376 10.9437C4.32032 10.9437 4.01656 10.8425 3.8225 10.64C3.33874 10.1337 3.755 9.2759 3.77187 9.23933C3.83094 9.12402 3.97156 9.07621 4.08688 9.13527C4.20219 9.19152 4.25 9.33215 4.19375 9.44746C4.18813 9.45871 3.90687 10.0522 4.16 10.3165C4.33719 10.4965 5.04595 10.7834 7.84725 9.53465C7.96537 9.48121 8.10319 9.53465 8.15663 9.65278C8.21007 9.7709 8.15663 9.90872 8.0385 9.96216C6.56754 10.6175 5.47346 10.9437 4.73376 10.9437ZM4.35407 13.2585C4.15157 13.2585 3.97719 13.2135 3.83094 13.1263C3.23186 12.7635 3.40062 11.8578 3.40905 11.8212C3.43437 11.6919 3.55531 11.6103 3.68468 11.6356C3.81125 11.6609 3.89281 11.7819 3.87031 11.9084C3.8675 11.9169 3.76062 12.5356 4.07281 12.7241C4.30907 12.8675 5.13314 12.9688 7.73475 10.8931C7.836 10.8115 7.98225 10.8284 8.06381 10.9297C8.14538 11.0309 8.1285 11.1772 8.02725 11.2587C6.34816 12.5975 5.13877 13.2585 4.35407 13.2585ZM13.9027 6.8318C13.163 6.8318 12.4795 6.41554 12.0323 5.65053C11.9648 5.53803 12.0042 5.39459 12.1139 5.3299C12.2264 5.26521 12.3698 5.30177 12.4345 5.41427C12.8311 6.08647 13.6045 6.64898 14.5945 6.20741C14.9067 6.0696 14.918 5.91772 14.9208 5.86991C14.9574 5.35521 13.8295 4.40738 13.0195 3.8955C12.9098 3.828 12.8761 3.68175 12.9436 3.57206C13.0139 3.46237 13.1573 3.43143 13.267 3.49893C13.2895 3.51299 13.807 3.83925 14.3245 4.28082C15.0727 4.92208 15.4186 5.45084 15.3877 5.90084C15.3736 6.12022 15.2555 6.42679 14.7858 6.63492C14.4905 6.76711 14.1923 6.8318 13.9027 6.8318ZM14.7886 9.06777C14.1192 9.06777 13.1995 8.6487 12.0042 7.80494C11.9001 7.729 11.8748 7.58275 11.9508 7.47587C12.0239 7.3718 12.1701 7.34649 12.277 7.42243C14.167 8.7612 14.9067 8.6712 15.1796 8.49963C15.5705 8.25494 15.5424 7.52649 15.4974 7.26774C15.4749 7.14118 15.5592 7.01742 15.6886 6.99774C15.8152 6.97524 15.9361 7.05961 15.9586 7.18618C15.9671 7.2368 16.1668 8.43213 15.4327 8.8962C15.2499 9.01152 15.0361 9.06777 14.7886 9.06777ZM15.2696 10.9437C14.5299 10.9437 13.4358 10.6175 11.9648 9.96216C11.8467 9.90872 11.7932 9.7709 11.8467 9.65278C11.9001 9.53465 12.0379 9.48121 12.1561 9.53465C14.9602 10.7862 15.6689 10.4965 15.8433 10.3137C16.0571 10.0915 15.8883 9.60215 15.8124 9.44746C15.7533 9.33215 15.8011 9.19152 15.9164 9.13527C16.0346 9.07621 16.1752 9.12402 16.2314 9.23933C16.2483 9.2759 16.6674 10.1337 16.1836 10.64C15.9868 10.8425 15.683 10.9437 15.2696 10.9437ZM15.6492 13.2585C14.8674 13.2585 13.6552 12.5975 11.9789 11.2587C11.8776 11.1772 11.8607 11.0309 11.9395 10.9297C12.0211 10.8284 12.1701 10.8115 12.2714 10.8931C14.873 12.9688 15.6971 12.8647 15.9305 12.7241C16.2455 12.5356 16.1358 11.9141 16.1358 11.9084C16.1105 11.7819 16.1949 11.6581 16.3214 11.6356C16.448 11.6103 16.5718 11.6919 16.5943 11.8184C16.6027 11.8578 16.7715 12.7635 16.1752 13.1263C16.0289 13.2135 15.8517 13.2585 15.6492 13.2585Z" fill="#CE7C64" stroke="#CE7C64" stroke-width="0.4"/>
<path fill-rule="evenodd" clip-rule="evenodd" d="M17.3172 19H13.5147C13.3789 19 13.2696 18.8908 13.2696 18.755C13.2696 18.6192 13.3789 18.5099 13.5147 18.5099H17.3172C17.9756 18.5099 18.5099 17.9756 18.5099 17.3172V12.9183C18.5099 12.7825 18.6192 12.6733 18.755 12.6733C18.8908 12.6733 19 12.7825 19 12.9183V17.3172C19 18.2472 18.2472 19 17.3172 19ZM6.48532 19H2.68279C1.75283 19 1 18.2472 1 17.3172V12.9183C1 12.7825 1.10923 12.6733 1.24504 12.6733C1.38084 12.6733 1.49008 12.7825 1.49008 12.9183V17.3172C1.49008 17.9756 2.02444 18.5099 2.68279 18.5099H6.48532C6.62113 18.5099 6.73036 18.6192 6.73036 18.755C6.73036 18.8908 6.62113 19 6.48532 19ZM18.755 6.134C18.6192 6.134 18.5099 6.02477 18.5099 5.88896V2.68279C18.5099 2.02444 17.9756 1.49008 17.3172 1.49008H13.5147C13.3789 1.49008 13.2696 1.38084 13.2696 1.24504C13.2696 1.10923 13.3789 1 13.5147 1H17.3172C18.2472 1 19 1.75283 19 2.68279V5.88896C19 6.02477 18.8908 6.134 18.755 6.134ZM1.24504 6.134C1.10923 6.134 1 6.02477 1 5.88896V2.68279C1 1.75283 1.75283 1 2.68279 1H6.48532C6.62113 1 6.73036 1.10923 6.73036 1.24504C6.73036 1.38084 6.62113 1.49008 6.48532 1.49008H2.68279C2.02444 1.49008 1.49008 2.02444 1.49008 2.68279V5.88896C1.49008 6.02477 1.38084 6.134 1.24504 6.134Z" fill="#CE7C64" stroke="#CE7C64" stroke-width="0.5"/>
</g>
<defs>
<clipPath id="clip0_2394_21243">
<rect width="20" height="20" fill="white"/>
</clipPath>
</defs>
</svg>
