<svg width="20" height="20" viewBox="0 0 20 20" fill="none" xmlns="http://www.w3.org/2000/svg">
<g clip-path="url(#clip0_2394_21362)">
<path fill-rule="evenodd" clip-rule="evenodd" d="M13.4604 1.41321C13.3879 1.24458 13.1736 1.20622 13.0489 1.33098L11.6562 2.72363L17.0265 8.09396C17.0275 8.09495 17.0285 8.09595 17.0295 8.09696C17.0305 8.09797 17.0315 8.09898 17.0325 8.1L17.2763 8.34381L18.669 6.95117C18.7938 6.82639 18.7554 6.61206 18.5868 6.5396C17.4462 6.04934 16.4093 5.34648 15.5314 4.46853C14.6535 3.5907 13.9507 2.55382 13.4604 1.41322L13.4604 1.41321ZM16.2266 8.3646L11.6354 3.77335L8.78228 6.6265L13.3735 11.2177L16.2266 8.3646ZM13.9088 11.753L16.7619 8.89986L17.0087 9.14669C17.0797 9.21767 17.176 9.25755 17.2763 9.25755C17.3767 9.25755 17.473 9.21768 17.544 9.1467L19.2042 7.48642C19.7124 6.97821 19.5394 6.12515 18.8857 5.84415L18.7362 6.19187L18.8857 5.84415C17.8333 5.39182 16.8766 4.74334 16.0667 3.93331L16.0667 3.93328C15.2567 3.12336 14.6082 2.16668 14.1559 1.11432C13.8749 0.460531 13.0218 0.287503 12.5136 0.795727L10.8533 2.456C10.7055 2.60381 10.7055 2.84345 10.8533 2.99126L11.1002 3.2381L8.24703 6.09125L8.09224 5.93646C7.94444 5.78865 7.70479 5.78865 7.55699 5.93646C7.40918 6.08427 7.40918 6.32391 7.55699 6.47171L7.72091 6.63563C7.0882 7.38144 6.75875 8.34495 6.81503 9.33074C6.8549 10.0297 6.86171 10.8693 6.75978 11.6287C6.65529 12.4072 6.44655 13.0182 6.12255 13.3422L6.12162 13.3431L3.55659 15.9261C3.04135 15.5185 2.30993 15.493 1.76412 15.8828L0.658496 16.6725C0.567963 16.7372 0.510468 16.8384 0.501291 16.9493C0.492115 17.0602 0.532186 17.1695 0.610856 17.2482L2.75185 19.3891C2.83052 19.4678 2.93981 19.5079 3.05068 19.4987C3.16156 19.4895 3.26278 19.432 3.32745 19.3415L4.11721 18.2359L4.11722 18.2359C4.50202 17.6972 4.48216 16.9776 4.0896 16.4636L6.6578 13.8775C6.65792 13.8773 6.65803 13.8772 6.65815 13.8771C6.98223 13.5533 7.59304 13.3447 8.37127 13.2402C9.13069 13.1383 9.97029 13.1451 10.6693 13.185C11.655 13.2412 12.6186 12.9118 13.3644 12.2791L13.5283 12.443C13.6761 12.5908 13.9157 12.5908 14.0635 12.443C14.2113 12.2952 14.2113 12.0556 14.0635 11.9078L13.9088 11.753ZM12.8269 11.7416L8.2584 7.17313C7.77578 7.76569 7.52689 8.51909 7.57076 9.28762L7.57076 9.28763C7.6119 10.0088 7.62104 10.9022 7.51002 11.7294C7.46648 12.0538 7.40287 12.3815 7.3093 12.6907C7.61848 12.5971 7.94624 12.5335 8.27058 12.49C9.09779 12.379 9.99119 12.3881 10.7124 12.4292L10.7124 12.4292C11.4809 12.4731 12.2343 12.2242 12.8269 11.7416ZM3.25075 16.6765C3.2634 16.6945 3.2778 16.7117 3.29396 16.7277C3.30946 16.7431 3.32597 16.7569 3.34326 16.769L3.42285 16.8486C3.67702 17.1028 3.71017 17.5035 3.50125 17.7959L2.97119 18.538L1.46203 17.0288L2.20409 16.4988L1.9887 16.1972L2.20409 16.4988C2.49658 16.2899 2.89723 16.323 3.1514 16.5772L3.25075 16.6765Z" fill="#CE7C64" stroke="#CE7C64" stroke-width="0.5" stroke-miterlimit="10" stroke-linecap="round" stroke-linejoin="round"/>
</g>
<defs>
<clipPath id="clip0_2394_21362">
<rect width="20" height="20" fill="white"/>
</clipPath>
</defs>
</svg>
