<svg width="20" height="20" viewBox="0 0 20 20" fill="none" xmlns="http://www.w3.org/2000/svg">
<g clip-path="url(#clip0_2394_21388)">
<path d="M3.52192 19.9999H0.390327C0.286806 19.9999 0.187525 19.9587 0.114324 19.8855C0.0411236 19.8122 0 19.7128 0 19.6092L0 14.118C0 14.0144 0.0411236 13.915 0.114324 13.8417C0.187525 13.7685 0.286806 13.7273 0.390327 13.7273H3.52192C3.62544 13.7273 3.72472 13.7685 3.79792 13.8417C3.87112 13.915 3.91225 14.0144 3.91225 14.118V19.6092C3.91225 19.7128 3.87112 19.8122 3.79792 19.8855C3.72472 19.9587 3.62544 19.9999 3.52192 19.9999ZM0.780654 19.2185H3.13159V14.5087H0.780654V19.2185Z" fill="#CE7C64" stroke="#CE7C64" stroke-width="0.2"/>
<path d="M9.84136 19.2153H3.52119C3.41767 19.2153 3.31838 19.1742 3.24518 19.1009C3.17198 19.0276 3.13086 18.9282 3.13086 18.8246V14.1179C3.13083 14.0607 3.14337 14.0042 3.16758 13.9523C3.1918 13.9005 3.2271 13.8546 3.27099 13.8179L5.61998 11.857C5.69019 11.7984 5.77874 11.7663 5.87017 11.7664H9.39288C9.70051 11.772 9.99365 11.8982 10.2092 12.118C10.4248 12.3377 10.5456 12.6334 10.5456 12.9414C10.5456 13.2493 10.4248 13.545 10.2092 13.7648C9.99365 13.9845 9.70051 14.1108 9.39288 14.1164H7.82688C7.72253 14.1164 7.62246 14.1579 7.54867 14.2317C7.47489 14.3056 7.43343 14.4058 7.43343 14.5102C7.43343 14.6146 7.47489 14.7148 7.54867 14.7887C7.62246 14.8625 7.72253 14.904 7.82688 14.904H9.18678C10.567 14.9051 11.935 14.6447 13.2185 14.1367L16.4875 12.8474C17.0544 12.6234 17.6745 12.5702 18.2713 12.6945C18.8681 12.8187 19.4155 13.115 19.8462 13.5467C19.887 13.5876 19.9182 13.6369 19.9376 13.6912C19.957 13.7455 19.9642 13.8034 19.9586 13.8608C19.953 13.9182 19.9348 13.9737 19.9052 14.0232C19.8757 14.0727 19.8355 14.1151 19.7877 14.1472L14.2524 17.869C12.9491 18.748 11.413 19.2169 9.84136 19.2153ZM3.91151 18.4339H9.84136C11.2578 18.4352 12.6422 18.0126 13.8168 17.2204L18.9161 13.7913C18.6025 13.5861 18.2443 13.4592 17.8715 13.4213C17.4988 13.3834 17.1224 13.4355 16.774 13.5733L13.5046 14.8634C12.1298 15.4071 10.6646 15.6855 9.18639 15.6838H7.82688C7.51549 15.6838 7.21686 15.56 6.99667 15.3396C6.77648 15.1192 6.65278 14.8203 6.65278 14.5086C6.65278 14.197 6.77648 13.898 6.99667 13.6776C7.21686 13.4572 7.51549 13.3334 7.82688 13.3334H9.39249C9.49464 13.3302 9.59153 13.2873 9.66265 13.2139C9.73378 13.1404 9.77355 13.0421 9.77355 12.9398C9.77355 12.8375 9.73378 12.7392 9.66265 12.6658C9.59153 12.5923 9.49464 12.5494 9.39249 12.5462H6.0103L3.91151 14.2992V18.4339Z" fill="#CE7C64" stroke="#CE7C64" stroke-width="0.2"/>
<path d="M15.3221 14.1163H7.82783C7.72431 14.1163 7.62502 14.0752 7.55182 14.0019C7.47862 13.9286 7.4375 13.8293 7.4375 13.7257C7.4375 13.622 7.47862 13.5227 7.55182 13.4494C7.62502 13.3761 7.72431 13.335 7.82783 13.335H15.3221C15.4256 13.335 15.5249 13.3761 15.5981 13.4494C15.6713 13.5227 15.7124 13.622 15.7124 13.7257C15.7124 13.8293 15.6713 13.9286 15.5981 14.0019C15.5249 14.0752 15.4256 14.1163 15.3221 14.1163Z" fill="#CE7C64" stroke="#CE7C64" stroke-width="0.2"/>
<path d="M4.00887 14.104C3.99677 14.104 3.98467 14.104 3.97218 14.104C3.09871 14.0204 2.28779 13.6137 1.69802 12.9634C1.10825 12.3131 0.782045 11.466 0.783206 10.5877C0.783206 10.4841 0.82433 10.3847 0.89753 10.3115C0.970731 10.2382 1.07001 10.197 1.17353 10.197H18.7878C18.8913 10.197 18.9906 10.2382 19.0638 10.3115C19.137 10.3847 19.1782 10.4841 19.1782 10.5877C19.1786 11.4495 18.8636 12.2816 18.2929 12.9268C18.2484 12.9776 18.1988 13.0307 18.1469 13.0831C18.0634 13.1669 17.9756 13.2463 17.8838 13.321C17.8442 13.3547 17.7983 13.3801 17.7488 13.3957C17.6993 13.4114 17.6471 13.417 17.5954 13.4122C17.5436 13.4075 17.4934 13.3924 17.4475 13.3679C17.4017 13.3435 17.3612 13.3101 17.3284 13.2698C17.2956 13.2294 17.2712 13.183 17.2566 13.1331C17.242 13.0832 17.2375 13.0309 17.2433 12.9792C17.2492 12.9275 17.2653 12.8776 17.2907 12.8322C17.3161 12.7868 17.3503 12.747 17.3912 12.715C17.4622 12.6571 17.53 12.5956 17.5946 12.5306C17.6336 12.4916 17.6727 12.4505 17.707 12.4107C18.0634 12.0087 18.2941 11.5108 18.3706 10.9788H1.59079C1.67521 11.5896 1.96376 12.1538 2.40944 12.5794C2.85513 13.0051 3.43167 13.2672 4.04517 13.323C4.14864 13.3278 4.24596 13.3735 4.31572 13.4502C4.38548 13.5268 4.42197 13.6281 4.41715 13.7316C4.41234 13.8352 4.36662 13.9326 4.29005 14.0024C4.21348 14.0723 4.11234 14.1088 4.00887 14.104Z" fill="#CE7C64" stroke="#CE7C64" stroke-width="0.2"/>
<path d="M18.0058 10.9784C17.9023 10.9784 17.803 10.9373 17.7298 10.864C17.6566 10.7907 17.6155 10.6914 17.6155 10.5877C17.6155 6.60969 14.5182 3.2591 10.5642 2.96022C10.4607 2.95245 10.3645 2.90383 10.2968 2.82507C10.2291 2.7463 10.1954 2.64384 10.2032 2.54022C10.2109 2.43661 10.2595 2.34032 10.3382 2.27254C10.4169 2.20477 10.5193 2.17106 10.6228 2.17883C12.7387 2.34208 14.7149 3.29899 16.1562 4.85811C17.5975 6.41723 18.3975 8.46357 18.3961 10.5877C18.3961 10.6914 18.355 10.7907 18.2818 10.864C18.2086 10.9373 18.1093 10.9784 18.0058 10.9784ZM1.95673 10.9784C1.85321 10.9784 1.75393 10.9373 1.68073 10.864C1.60753 10.7907 1.56641 10.6914 1.56641 10.5877C1.56564 8.46398 2.36589 6.41822 3.80711 4.8596C5.24834 3.30098 7.22429 2.3444 9.33977 2.18118C9.44329 2.17341 9.54566 2.20711 9.62435 2.27489C9.70304 2.34266 9.75161 2.43895 9.75937 2.54257C9.76714 2.64619 9.73346 2.74865 9.66575 2.82741C9.59804 2.90618 9.50184 2.95479 9.39832 2.96256C5.44431 3.25949 2.34706 6.61008 2.34706 10.5877C2.34706 10.6914 2.30594 10.7907 2.23274 10.864C2.15954 10.9373 2.06026 10.9784 1.95673 10.9784Z" fill="#CE7C64" stroke="#CE7C64" stroke-width="0.2"/>
<path d="M9.98123 3.13444C9.67144 3.13467 9.36854 3.04293 9.11085 2.87082C8.85316 2.6987 8.65226 2.45396 8.53357 2.16754C8.41487 1.88112 8.38372 1.5659 8.44404 1.26175C8.50436 0.957608 8.65346 0.678203 8.87246 0.458888C9.09146 0.239573 9.37052 0.0902008 9.67435 0.029669C9.97818 -0.0308629 10.2931 0.000165361 10.5793 0.118828C10.8655 0.237491 11.1102 0.438457 11.2822 0.696302C11.4543 0.954146 11.5461 1.25728 11.546 1.56737C11.5457 1.98275 11.3808 2.38104 11.0874 2.67483C10.7941 2.96863 10.3962 3.13392 9.98123 3.13444ZM9.98123 0.78129C9.82585 0.781058 9.6739 0.826963 9.5446 0.913197C9.4153 0.999431 9.31445 1.12212 9.25483 1.26573C9.19521 1.40935 9.17949 1.56744 9.20966 1.72C9.23983 1.87256 9.31454 2.01274 9.42432 2.12279C9.53411 2.23284 9.67404 2.30782 9.82641 2.33825C9.97879 2.36868 10.1367 2.35318 10.2803 2.29372C10.4239 2.23425 10.5466 2.1335 10.633 2.00421C10.7193 1.87491 10.7654 1.72289 10.7654 1.56737C10.7654 1.35909 10.6828 1.15932 10.5358 1.01194C10.3888 0.864556 10.1893 0.781601 9.98123 0.78129Z" fill="#CE7C64" stroke="#CE7C64" stroke-width="0.2"/>
</g>
<defs>
<clipPath id="clip0_2394_21388">
<rect width="20" height="20" fill="white"/>
</clipPath>
</defs>
</svg>
