<svg width="20" height="20" viewBox="0 0 20 20" fill="none" xmlns="http://www.w3.org/2000/svg">
<g clip-path="url(#clip0_2385_21152)">
<g clip-path="url(#clip1_2385_21152)">
<path d="M14.5275 8.30188C14.5134 8.30188 14.4997 8.30156 14.4859 8.30062L4.2225 7.71656C3.83844 7.69469 3.53906 7.37719 3.53906 6.99312V1.30875C3.53906 0.924688 3.83844 0.606875 4.2225 0.585312L14.4862 0.00125C14.4997 0.0003125 14.5134 0 14.5275 0C16.5678 0 18.2284 1.66031 18.2284 3.70125V4.60094C18.2284 6.64156 16.5681 8.30188 14.5275 8.30188ZM4.98813 6.30844L14.5469 6.8525C15.7794 6.8425 16.7794 5.83625 16.7794 4.60094V3.70125C16.7794 2.46594 15.7797 1.46 14.5469 1.44969L4.98813 1.99375V6.30844Z" fill="#CE7C64"/>
<path d="M4.26375 7.71761H1.60781C1.20719 7.71761 0.882812 7.39323 0.882812 6.99292V1.32698C0.882812 0.92667 1.20719 0.602295 1.60781 0.602295H4.26375C4.66438 0.602295 4.98844 0.92667 4.98844 1.32698V6.99323C4.98844 7.39323 4.66438 7.71761 4.26375 7.71761ZM2.33188 6.26855H3.53937V2.05136H2.33188V6.26855ZM12.4425 16.8132C12.3191 16.8132 12.1947 16.8048 12.0691 16.7867C11.3759 16.687 10.7631 16.3235 10.3438 15.7632C9.92437 15.2026 9.74875 14.5129 9.84781 13.8207L10.7803 7.30261C10.8362 6.90604 11.2034 6.62854 11.6003 6.68761C11.9969 6.74417 12.2716 7.11136 12.215 7.50761L11.2828 14.0264C11.2375 14.3364 11.3163 14.6445 11.5041 14.8948C11.6913 15.1454 11.9656 15.3076 12.2753 15.3523C12.9131 15.4445 13.5103 14.9979 13.6025 14.3573L14.6016 7.36542C14.6584 6.96886 15.0234 6.69292 15.4216 6.75042C15.8181 6.80698 16.0928 7.17386 16.0366 7.57042L15.0375 14.5626C14.8503 15.8685 13.7253 16.8132 12.4425 16.8132Z" fill="#CE7C64"/>
<path d="M11.1684 10.4218H9.81617C9.41617 10.4218 9.0918 10.0974 9.0918 9.6971C9.0918 9.29679 9.41617 8.97241 9.81617 8.97241H11.1684C11.5684 8.97241 11.8927 9.29679 11.8927 9.6971C11.8927 10.0974 11.5687 10.4218 11.1684 10.4218ZM16.3862 19.9999C15.6955 19.9999 14.8515 19.9509 13.8627 19.8043C12.7696 19.6415 12.0024 19.1843 11.5818 18.4443C10.9209 17.2808 11.4393 15.9421 11.5005 15.7934C11.6534 15.4234 12.0765 15.2471 12.4468 15.3993C12.8159 15.5515 12.9924 15.9727 12.8421 16.3418C12.7515 16.5705 12.5752 17.2652 12.8446 17.7333C13.0346 18.063 13.4487 18.2774 14.0752 18.3705C16.7162 18.7624 18.1884 18.3921 18.2021 18.3883C18.5884 18.2833 18.9862 18.5108 19.0921 18.8968C19.1974 19.283 18.9699 19.6812 18.5837 19.7865C18.5365 19.799 17.7759 19.9999 16.3862 19.9999Z" fill="#CE7C64"/>
</g>
</g>
<defs>
<clipPath id="clip0_2385_21152">
<rect width="20" height="20" fill="white"/>
</clipPath>
<clipPath id="clip1_2385_21152">
<rect width="20" height="20" fill="white"/>
</clipPath>
</defs>
</svg>
