<svg width="20" height="20" viewBox="0 0 20 20" fill="none" xmlns="http://www.w3.org/2000/svg">
<path d="M13.2577 9.50843C13.3064 8.24858 13.0948 6.99222 12.636 5.81789C12.1771 4.64356 11.481 3.5765 10.591 2.68343L9.99935 2.1001L9.40768 2.68343C8.55248 3.5319 7.87476 4.54215 7.41407 5.65527C6.95337 6.76838 6.7189 7.96209 6.72435 9.16676C6.72435 9.28343 6.72435 9.4001 6.72435 9.50843C5.44748 8.74354 3.98778 8.33759 2.49935 8.33343H1.66602V9.16676C1.66599 11.2326 2.43332 13.2249 3.81915 14.757C5.20497 16.2891 7.11049 17.2518 9.16602 17.4584V17.5001H10.8327V17.4584C12.8882 17.2518 14.7937 16.2891 16.1795 14.757C17.5654 13.2249 18.3327 11.2326 18.3327 9.16676V8.33343H17.4993C16.0053 8.33459 14.5394 8.74065 13.2577 9.50843ZM9.99935 4.5251C10.7146 5.43539 11.2095 6.49891 11.4452 7.63237C11.6808 8.76584 11.6509 9.93847 11.3577 11.0584C10.8101 11.6555 10.3525 12.3293 9.99935 13.0584C9.6462 12.3293 9.18861 11.6555 8.64102 11.0584C8.4781 10.441 8.3941 9.80535 8.39102 9.16676C8.38495 7.48187 8.95212 5.84502 9.99935 4.5251ZM3.39102 10.0584C4.83855 10.2535 6.18196 10.9185 7.21477 11.9513C8.24758 12.9841 8.91263 14.3276 9.10768 15.7751C7.66015 15.58 6.31673 14.915 5.28392 13.8822C4.25111 12.8494 3.58607 11.506 3.39102 10.0584ZM10.891 15.7751C11.0861 14.3276 11.7511 12.9841 12.7839 11.9513C13.8167 10.9185 15.1602 10.2535 16.6077 10.0584C16.4126 11.506 15.7476 12.8494 14.7148 13.8822C13.682 14.915 12.3385 15.58 10.891 15.7751Z" fill="#CE7C64"/>
</svg>
