<svg width="20" height="20" viewBox="0 0 20 20" fill="none" xmlns="http://www.w3.org/2000/svg">
<g clip-path="url(#clip0_2385_21159)">
<path d="M12.9491 2.92966C12.9491 1.31425 11.6349 0 10.0195 0C8.40404 0 7.08979 1.31425 7.08979 2.92966C7.08979 4.54508 8.40404 5.85933 10.0195 5.85933C11.6349 5.85933 12.9491 4.54508 12.9491 2.92966ZM10.0195 4.68746C9.0502 4.68746 8.26165 3.89891 8.26165 2.92966C8.26165 1.96041 9.0502 1.17187 10.0195 1.17187C10.9887 1.17187 11.7773 1.96041 11.7773 2.92966C11.7773 3.89891 10.9887 4.68746 10.0195 4.68746ZM19.9803 13.5546C19.9803 12.5853 19.1918 11.7968 18.2225 11.7968C15.9993 11.7968 14.121 9.88274 14.121 7.61713C14.121 6.64788 13.3324 5.85933 12.3632 5.85933H7.67572C6.70647 5.85933 5.91792 6.64788 5.91792 7.61713C5.91792 9.88274 4.02177 11.7968 1.77733 11.7968C0.80808 11.7968 0.0195312 12.5853 0.0195312 13.5546C0.0195312 14.0915 0.261756 14.5726 0.642339 14.8953C0.256092 15.3133 0.0195312 15.8716 0.0195312 16.4842C0.0195312 17.6195 0.829408 18.5895 1.94584 18.7908L8.53431 19.9719C8.79758 20.0197 9.0683 20.0066 9.32573 19.9336C9.58316 19.8607 9.82046 19.7297 10.0195 19.5508C10.2185 19.7297 10.4558 19.8607 10.7132 19.9336C10.9706 20.0066 11.2414 20.0197 11.5046 19.9719L18.0546 18.7907C19.1704 18.5895 19.9804 17.6195 19.9804 16.4842C19.9804 15.8716 19.7438 15.3133 19.3575 14.8953C19.7381 14.5727 19.9803 14.0915 19.9803 13.5546ZM8.74216 18.8186L2.15326 17.6374C1.59593 17.5369 1.1914 17.0519 1.1914 16.4842C1.1914 15.8381 1.7171 15.3124 2.36326 15.3124C2.50326 15.3124 2.63998 15.3367 2.77068 15.385L9.05071 17.6921C9.27969 17.7768 9.43352 17.9978 9.43352 18.2421C9.43352 18.605 9.10442 18.884 8.74216 18.8186ZM4.55442 14.7918C5.48824 14.4307 6.32409 13.9002 7.03815 13.231C6.93827 14.0867 6.71038 14.9005 6.50386 15.508L4.55442 14.7918ZM17.8466 17.6374L11.2967 18.8186C10.9342 18.884 10.6054 18.6047 10.6054 18.242C10.6054 17.9977 10.7592 17.7767 10.9882 17.6921L17.2303 15.3846C17.3604 15.3366 17.498 15.3121 17.6366 15.3124C18.2827 15.3124 18.8084 15.8381 18.8084 16.4842C18.8084 17.0519 18.4039 17.5369 17.8466 17.6374ZM13.0017 13.2381C13.7126 13.9083 14.5458 14.4355 15.4559 14.7911L13.5331 15.5019C13.3277 14.8967 13.1016 14.0884 13.0017 13.2381ZM18.2225 14.1405C13.9383 14.1405 12.4315 10.4266 11.9734 9.96098L11.8173 11.5775C11.7907 11.8526 11.7773 12.1235 11.7773 12.3827C11.7773 13.6671 12.0992 14.937 12.433 15.9086L10.5818 16.593C10.3745 16.6697 10.1836 16.7852 10.0194 16.9332C9.85485 16.785 9.66368 16.6694 9.45602 16.5925L7.60467 15.9124C7.93896 14.9403 8.26173 13.6689 8.26173 12.3827C8.26173 12.1234 8.24826 11.8524 8.22169 11.5775L8.06548 9.96117C7.59889 10.4336 6.10843 14.1405 1.77733 14.1405C1.45425 14.1405 1.1914 13.8777 1.1914 13.5546C1.1914 13.2315 1.45425 12.9686 1.77733 12.9686H2.06498V12.9608C4.79887 12.8103 7.08979 10.4753 7.08979 7.61713C7.08979 7.29404 7.35264 7.0312 7.67572 7.0312H12.3632C12.6863 7.0312 12.9491 7.29404 12.9491 7.61713C12.9491 9.02594 13.4965 10.3619 14.4906 11.3787C15.4241 12.3337 16.6379 12.8891 17.9349 12.9607V12.9686H18.2225C18.5456 12.9686 18.8084 13.2315 18.8084 13.5546C18.8084 13.8777 18.5456 14.1405 18.2225 14.1405Z" fill="#CE7C64"/>
</g>
<defs>
<clipPath id="clip0_2385_21159">
<rect width="20" height="20" fill="white"/>
</clipPath>
</defs>
</svg>
